<svg width="8978" height="2358" viewBox="0 0 8978 2358" fill="none" xmlns="http://www.w3.org/2000/svg">
<mask id="path-2-outside-1_697_699" maskUnits="userSpaceOnUse" x="89.3535" y="77.2539" width="8808" height="2202" fill="black">
<rect fill="white" x="89.3535" y="77.2539" width="8808" height="2202"/>
<path d="M8888.31 120.784C8893.6 163.098 8802.36 300.617 8738.89 349.542C8596.08 459.294 8344.84 522.764 7760.38 595.491C7546.17 623.259 7010.64 674.829 6943.2 674.829C6886.34 674.829 6886.34 643.094 6944.52 573.012C6973.61 538.632 7006.67 491.029 7018.57 467.227C7037.08 431.525 7047.66 424.914 7108.49 416.98C7322.7 390.534 7720.71 317.807 8161.04 225.246C8737.56 104.917 8852.61 82.4379 8871.12 86.4048C8879.05 87.7271 8885.66 103.594 8888.31 120.784ZM500.946 165.743C1282.43 327.064 1515.15 370.699 1721.43 399.79L1936.97 430.203L1964.73 476.484C1980.6 501.607 2012.34 547.888 2037.46 578.301C2082.42 633.837 2093 668.217 2066.55 677.473C2052.01 682.763 2001.76 678.796 1677.79 648.383C1143.58 599.458 684.746 530.698 481.112 469.872C323.758 423.591 210.04 342.931 134.668 226.569C91.0324 157.809 84.4209 93.0161 121.445 93.0161C134.668 93.0161 305.245 126.074 500.946 165.743ZM2297.95 435.492C2373.33 456.649 2501.59 484.417 2582.25 497.64C2729.02 521.442 2731.67 522.764 2748.86 563.755C2758.12 587.557 2791.17 633.837 2821.59 666.895C2894.31 746.233 2883.73 750.2 2649.69 729.043C2234.48 693.341 2038.78 599.458 1975.31 406.401C1947.54 320.452 1960.77 313.84 2067.87 357.476C2119.44 378.633 2222.58 414.335 2297.95 435.492ZM7006.67 332.353C7035.76 378.633 6955.1 528.053 6870.47 587.557C6809.65 628.548 6653.62 684.085 6543.87 701.275C6419.57 721.109 6141.89 743.589 6127.34 734.332C6119.41 729.043 6133.95 701.275 6160.4 669.54C6185.52 639.127 6214.61 591.524 6226.51 565.078C6242.38 525.409 6254.28 516.153 6295.27 509.541C6550.48 471.194 6838.74 395.823 6944.52 338.964C6988.16 315.163 6996.09 313.84 7006.67 332.353ZM2908.86 480.45C3004.06 543.921 3034.48 554.499 3189.19 575.656C3349.18 598.135 3580.59 603.517 3674.47 685.5C3736.62 739.714 3815.35 793.625 3854.5 982.5C3854.5 1019.52 3730 1109 3784.5 1220C3796.4 1292.73 3691.66 1291.02 3686.37 1294.99C3674.47 1306.89 3636.12 1255.32 3539.6 1092.68C3491.99 1012.02 3432.49 922.099 3410.01 893.009C3351.83 820.282 3256.62 771.357 3137.62 752.845C2969.68 726.399 2907.54 705.242 2857.29 654.994C2787.21 584.912 2746.21 476.484 2777.95 446.071C2797.78 426.236 2849.35 439.459 2908.86 480.45ZM6257 436.814C6250.29 491.674 6137.92 656.317 6071.8 690.696C6045.36 705.242 5960.73 727.721 5882.71 740.944C5648.67 783.258 5601.06 818.96 5455.61 1064.91C5353.79 1234.16 5300.9 1308.21 5289 1294.99C5285.03 1291.02 5199.43 1277.54 5191.5 1222C5137 1089.5 5140.9 1082.1 5121.07 1039.78C5020.82 825.925 5228.18 733.01 5300.9 669.54C5388.17 592.846 5627.51 596.813 5779.58 575.656C5927.67 554.499 6012.3 524.086 6077.09 469.872C6102.22 448.715 6127.34 436.814 6163.04 436.814H6210.65H6257ZM569.706 529.376C827.555 590.201 1295.65 653.672 1783.58 694.663C1922.42 705.242 2048.04 718.465 2062.58 721.109C2078.45 725.076 2098.29 744.911 2107.54 767.39C2116.8 789.869 2141.92 832.183 2163.08 862.596C2194.81 904.909 2198.78 918.132 2184.24 928.711C2159.11 945.901 1303.58 930.033 1036.48 907.554C798.464 886.397 683.424 857.306 586.896 796.481C469.211 721.109 359.46 576.979 379.294 524.086C389.873 496.318 430.864 497.64 569.706 529.376ZM8606.66 516.153C8621.2 539.954 8564.34 641.771 8496.91 711.853C8373.93 837.472 8228.48 883.753 7879.39 910.199C7696.91 924.744 6775.27 931.355 6775.27 918.132C6775.27 914.165 6793.78 887.719 6814.94 859.951C6837.42 832.183 6863.86 788.547 6874.44 762.101C6888.99 729.043 6903.53 714.498 6922.04 714.498C6978.9 714.498 7544.85 660.284 7747.16 635.16C7971.95 606.069 8285.34 555.822 8428.15 524.086C8532.61 501.607 8596.08 498.963 8606.66 516.153ZM2292.67 709.209C2378.61 734.332 2582.25 764.745 2742.25 775.324C2845.39 781.935 2885.06 789.869 2898.28 805.737C2920.76 833.505 3006.71 985.57 3006.71 996.148C3006.71 1010.69 2572.99 1006.73 2487.04 992.181C2393.16 977.636 2272.83 924.744 2222.58 875.819C2157.79 814.993 2102.25 684.085 2128.7 658.961C2132.67 653.672 2157.79 660.284 2184.24 670.862C2210.68 682.763 2259.61 698.63 2292.67 709.209ZM6858.57 664.25C6869.15 695.986 6825.52 792.514 6775.27 850.695C6672.13 967.058 6504.2 1009.37 6170.98 1002.76L5969.99 998.793L6005.69 928.711C6025.52 889.042 6055.94 840.117 6074.45 818.96C6106.18 779.291 6111.47 779.291 6286.02 766.068C6484.36 751.522 6668.16 717.142 6768.66 677.473C6850.64 644.416 6850.64 644.416 6858.57 664.25ZM3105.88 785.902C3215.63 805.737 3324.06 841.439 3324.06 859.951C3324.06 878.463 3140.26 889.042 3066.21 873.174C3013.32 862.596 2985.55 848.05 2960.43 818.96C2918.11 767.39 2918.11 750.2 2964.39 759.456C2984.23 764.745 3047.7 776.646 3105.88 785.902ZM6048 768.712C6048 797.803 6018.91 833.505 5981.89 853.34C5930.32 879.786 5677.76 882.43 5677.76 855.984C5677.76 833.505 5778.25 797.803 5903.87 775.324C6029.49 751.522 6048 751.522 6048 768.712ZM5962.05 923.422C5958.09 934 5955.44 943.256 5955.44 947.223C5955.44 960.446 5874.78 989.537 5811.31 997.47C5724.04 1009.37 5558.75 993.504 5558.75 974.991C5558.75 967.058 5570.65 948.545 5583.87 934C5607.68 908.876 5624.87 906.232 5788.83 906.232C5932.96 906.232 5967.34 910.199 5962.05 923.422ZM3392.82 935.322C3436.46 974.991 3421.91 989.537 3329.35 998.793C3174.64 1015.98 3035.8 986.892 3015.96 932.678C3002.74 902.265 3357.12 903.587 3392.82 935.322ZM1770.36 964.413C2283.41 965.735 2338.95 971.024 2338.95 1017.31C2338.95 1070.2 1660.6 1228.87 1430.52 1230.2C1282.43 1230.2 1154.16 1186.56 1043.09 1097.97C992.842 1058.3 943.917 997.47 943.917 974.991C943.917 952.512 1000.78 945.901 1131.68 953.835C1207.06 959.124 1493.99 963.091 1770.36 964.413ZM8016.91 951.19C8049.97 972.347 8020.88 1029.21 7948.15 1086.06C7756.42 1239.45 7542.2 1260.61 7133.61 1169.37C6912.79 1120.44 6665.52 1046.4 6643.04 1025.24C6595.44 976.314 6635.1 972.347 7264.52 964.413C7599.06 960.446 7876.75 952.512 7882.04 948.545C7893.94 935.322 7995.75 937.967 8016.91 951.19ZM6583.54 1058.3C6578.25 1075.49 6550.48 1113.83 6521.39 1145.57C6451.3 1220.94 6373.29 1247.39 6211.97 1246.06C6070.48 1246.06 5836.43 1207.72 5836.43 1185.24C5836.43 1160.11 5886.68 1087.39 5918.42 1067.55C5940.9 1053.01 6014.95 1046.4 6213.29 1039.78C6358.74 1035.82 6498.91 1027.88 6524.03 1021.27C6578.25 1006.73 6596.76 1018.63 6583.54 1058.3ZM2722.41 1039.78C3054.31 1047.72 3049.02 1046.4 3105.88 1120.44C3131 1153.5 3152.16 1185.24 3152.16 1190.53C3152.16 1195.82 3096.62 1211.68 3030.51 1224.91C2883.73 1254 2653.65 1257.96 2579.6 1231.52C2491.01 1201.1 2398.45 1100.61 2398.45 1037.14C2398.45 1019.95 2406.38 1017.3 2435.47 1023.92C2455.31 1029.21 2584.89 1035.82 2722.41 1039.78ZM3466.87 1054.33C3462.9 1074.16 3444.39 1078.13 3337.28 1082.1C3259.27 1084.74 3191.83 1079.45 3158.77 1068.87L3105.88 1051.68L3205.05 1043.75C3259.27 1039.78 3341.25 1035.82 3387.53 1034.49C3461.58 1031.85 3470.84 1034.49 3466.87 1054.33ZM5862.88 1045.07C5862.88 1071.52 5761.06 1088.71 5640.73 1080.78C5511.15 1072.84 5497.92 1068.87 5512.47 1045.07C5523.05 1027.88 5862.88 1027.88 5862.88 1045.07ZM6828.16 1129.7C6918.08 1156.15 7116.42 1203.75 7267.17 1234.16C7419.23 1264.58 7540.88 1294.99 7538.24 1301.6C7528.98 1330.69 7437.74 1390.19 7366.34 1415.32C7255.26 1454.99 7141.55 1451.02 6998.74 1402.09C6881.05 1363.75 6632.46 1246.06 6579.57 1205.07L6551.8 1183.92L6587.5 1127.06C6609.98 1091.35 6631.14 1072.84 6643.04 1076.81C6653.62 1079.45 6736.92 1103.25 6828.16 1129.7ZM2390.52 1128.38C2444.73 1198.46 2452.66 1190.53 2230.52 1301.6C1952.83 1440.44 1774.32 1473.5 1611.68 1416.64C1528.37 1387.55 1433.17 1330.69 1433.17 1309.53C1433.17 1287.05 1484.74 1269.86 1594.49 1255.32C1734.65 1238.13 1967.38 1186.56 2153.82 1131.02C2342.91 1075.49 2350.85 1075.49 2390.52 1128.38ZM3514.47 1132.35C3562.08 1179.95 3542.24 1190.53 3404.72 1190.53C3276.46 1190.53 3178.61 1168.05 3178.61 1137.63C3178.61 1131.02 3236.79 1123.09 3308.19 1120.44C3378.27 1119.12 3449.68 1115.16 3465.55 1113.83C3481.41 1112.51 3503.89 1120.44 3514.47 1132.35ZM5759.74 1124.41C5820.57 1124.41 5816.6 1142.92 5747.84 1170.69C5692.3 1194.49 5439.74 1198.46 5439.74 1175.98C5439.74 1168.05 5446.36 1149.54 5454.29 1134.99C5468.83 1108.54 5476.77 1108.54 5589.16 1116.48C5653.96 1120.44 5731.97 1124.41 5759.74 1124.41ZM2522.75 1254C2551.84 1273.83 2576.96 1297.63 2580.93 1306.89C2588.86 1330.69 2364.07 1551.51 2295.31 1585.89C2164.4 1652.01 2005.73 1646.72 1933 1572.67C1897.3 1536.97 1895.97 1533 1915.81 1503.91C1929.03 1484.08 1980.6 1453.66 2052.01 1423.25C2115.48 1396.81 2233.16 1339.95 2312.5 1297.63C2393.16 1255.32 2460.6 1219.62 2464.56 1218.29C2468.53 1218.29 2494.98 1234.16 2522.75 1254ZM5710.82 1236.81C5718.75 1238.13 5694.95 1254 5657.92 1271.19C5609 1293.67 5568.01 1301.6 5496.6 1301.6C5386.85 1301.6 5355.12 1285.73 5392.14 1244.74C5411.98 1222.26 5429.17 1220.94 5556.11 1226.23C5634.12 1230.2 5704.2 1234.16 5710.82 1236.81ZM6707.83 1314.82C6813.62 1369.04 6926.01 1420.61 6957.75 1429.86C6989.48 1439.12 7029.15 1462.92 7047.66 1484.08C7088.65 1534.33 7072.79 1566.06 6989.48 1603.08C6903.53 1641.43 6779.24 1630.85 6682.71 1579.28C6590.15 1529.04 6402.38 1341.27 6407.67 1304.24C6410.31 1281.77 6485.68 1216.97 6508.16 1216.97C6510.81 1216.97 6600.73 1260.61 6707.83 1314.82ZM3244.72 1276.48C3300.26 1333.34 3301.58 1330.69 3125.72 1390.19C2974.97 1440.44 2817.62 1449.7 2747.54 1411.35C2705.22 1388.87 2623.24 1314.82 2623.24 1298.96C2623.24 1293.67 2690.68 1288.38 2772.66 1285.73C2853.32 1284.41 2977.62 1271.19 3046.38 1257.96C3115.14 1244.74 3178.61 1232.84 3186.54 1231.52C3193.15 1231.52 3220.92 1251.35 3244.72 1276.48ZM3593.81 1259.29C3614.97 1294.99 3593.81 1302.92 3478.77 1302.92C3372.99 1301.6 3271.17 1272.51 3271.17 1242.1C3271.17 1234.16 3337.28 1231.52 3424.56 1232.84C3552.82 1236.81 3581.91 1240.77 3593.81 1259.29ZM5995.11 1263.25C6063.87 1273.83 6172.3 1283.09 6237.09 1283.09C6300.56 1283.09 6352.13 1288.38 6352.13 1293.67C6352.13 1314.82 6266.18 1392.84 6223.87 1410.03C6173.62 1432.51 6009.66 1433.83 5935.61 1414C5888 1402.09 5705.53 1335.98 5692.3 1328.05C5689.66 1325.4 5708.17 1302.92 5731.97 1276.48C5771.64 1234.16 5782.22 1228.87 5823.21 1235.48C5848.34 1240.77 5926.35 1252.67 5995.11 1263.25ZM3456.29 1349.2C3456.29 1371.68 3306.87 1480.11 3207.7 1529.04C3123.07 1571.35 3101.91 1576.64 3038.44 1571.35C2982.91 1566.06 2957.78 1556.8 2927.37 1527.71C2906.21 1507.88 2891.67 1486.72 2894.31 1481.43C2896.96 1476.14 2931.34 1468.21 2969.68 1464.24C3037.12 1457.63 3154.81 1423.25 3310.84 1363.75C3388.85 1334.66 3456.29 1328.05 3456.29 1349.2ZM3675.79 1355.81C3699.59 1374.33 3696.95 1379.62 3611 1462.92C3507.86 1562.09 3406.04 1630.85 3328.03 1653.33C3284.39 1666.56 3264.56 1666.56 3216.95 1650.69C3186.54 1640.11 3158.77 1625.56 3156.13 1617.63C3153.48 1609.7 3182.57 1587.22 3220.92 1567.38C3259.27 1547.55 3333.32 1501.27 3383.56 1464.24C3544.89 1347.88 3564.72 1335.98 3607.03 1335.98C3630.83 1335.98 3661.25 1345.24 3675.79 1355.81ZM5544.21 1421.93C5605.03 1468.21 5694.95 1526.39 5742.55 1550.19C5790.15 1573.99 5832.47 1595.15 5835.11 1597.8C5849.66 1605.73 5799.41 1638.79 5757.1 1650.69C5656.6 1677.13 5534.95 1616.31 5360.41 1453.66C5279.75 1376.97 5275.78 1371.68 5300.9 1354.49C5314.12 1343.91 5349.83 1335.98 5378.92 1335.98C5425.2 1337.3 5450.32 1349.2 5544.21 1421.93ZM5747.84 1388.87C5824.53 1417.96 5932.96 1448.38 5988.5 1457.63C6051.97 1466.89 6087.67 1478.79 6087.67 1489.37C6087.67 1498.62 6061.23 1522.42 6026.85 1542.26C5954.12 1584.57 5891.97 1581.93 5779.58 1530.36C5702.88 1495.98 5519.08 1366.39 5519.08 1346.56C5519.08 1321.43 5616.93 1339.95 5747.84 1388.87ZM2612.66 1637.46C2616.63 1850.36 2616.63 1851.68 2587.54 1851.68C2521.42 1851.68 2471.18 1727.38 2480.43 1585.89C2487.04 1495.98 2514.81 1437.8 2576.96 1386.23C2610.02 1359.78 2607.37 1346.56 2612.66 1637.46ZM6426.18 1404.74C6446.02 1428.54 6469.82 1466.89 6480.4 1490.69C6500.23 1540.94 6502.87 1679.78 6484.36 1748.54C6469.82 1800.11 6416.92 1851.68 6378.58 1851.68C6358.74 1851.68 6358.74 1842.42 6368 1761.76C6374.61 1712.84 6377.26 1603.08 6371.97 1517.14C6368 1424.57 6369.32 1362.43 6377.26 1362.43C6383.87 1362.43 6406.35 1382.26 6426.18 1404.74ZM2781.92 1657.3C2781.92 1760.44 2789.85 1882.09 2800.43 1928.37C2809.69 1973.33 2814.97 2013 2812.33 2015.64C2809.69 2018.29 2792.5 2016.97 2775.31 2013C2725.06 2003.74 2680.1 1940.27 2661.59 1855.64C2644.4 1772.34 2637.79 1444.41 2653.65 1419.28C2660.27 1408.71 2680.1 1414 2722.41 1437.8L2781.92 1470.85V1657.3ZM6330.98 1431.19C6344.2 1481.43 6340.23 1698.29 6324.36 1805.4C6307.17 1921.76 6272.79 1981.26 6208 2006.39L6163.04 2024.9L6173.62 1974.65C6178.91 1946.88 6188.17 1821.26 6192.13 1695.65L6200.07 1466.89L6252.96 1436.47C6320.4 1396.81 6320.4 1396.81 6330.98 1431.19ZM3719.43 1595.15C3650.67 1666.56 3532.98 1719.45 3444.39 1719.45C3342.57 1719.45 3317.45 1700.94 3380.92 1674.49C3447.03 1648.04 3525.05 1592.51 3633.48 1493.33L3726.04 1411.35L3744.55 1480.11L3764.39 1548.87L3719.43 1595.15ZM5422.55 1555.48C5467.51 1592.51 5533.63 1637.46 5570.65 1654.65C5646.02 1690.36 5652.63 1702.26 5603.71 1714.16C5517.76 1735.31 5363.05 1686.39 5281.07 1609.7C5214.95 1548.87 5213.63 1543.58 5236.11 1477.47L5257.27 1415.32L5299.58 1452.34C5323.38 1472.18 5378.92 1518.46 5422.55 1555.48ZM2935.3 1585.89C2963.07 1599.12 2964.39 1611.02 2971.01 1814.65C2973.65 1933.66 2981.58 2043.41 2986.87 2059.28C2994.81 2084.4 2992.16 2089.69 2968.36 2089.69C2869.19 2089.69 2832.16 2001.1 2824.23 1743.25C2821.59 1636.14 2821.59 1538.29 2826.88 1526.39C2834.81 1506.56 2840.1 1507.88 2871.83 1536.97C2891.67 1555.48 2920.76 1577.96 2935.3 1585.89ZM6159.08 1622.92C6167.01 1739.28 6151.14 1928.37 6127.34 1991.84C6108.83 2038.12 6049.33 2089.69 6014.95 2089.69C5987.18 2089.69 5985.85 2085.73 5996.43 2039.44C6004.37 2013 6012.3 1901.93 6014.95 1792.17L6021.56 1593.83L6074.45 1563.42C6103.54 1546.23 6127.34 1526.39 6127.34 1519.78C6127.34 1513.17 6132.63 1507.88 6139.24 1507.88C6144.53 1507.88 6153.79 1559.45 6159.08 1622.92ZM2423.57 1733.99C2386.55 1756.47 2280.76 1679.78 2295.31 1638.79C2297.95 1632.18 2329.69 1607.05 2365.39 1581.93L2431.51 1538.29L2435.47 1630.85C2438.12 1691.68 2434.15 1727.38 2423.57 1733.99ZM6616.59 1581.93C6652.29 1608.37 6682.71 1637.46 6682.71 1648.04C6682.71 1683.75 6619.24 1735.31 6579.57 1730.03C6545.19 1726.06 6543.87 1723.41 6539.9 1629.53C6537.25 1577.96 6539.9 1534.33 6543.87 1534.33C6547.83 1534.33 6579.57 1555.48 6616.59 1581.93ZM3810.67 1669.2C3838.44 1733.99 3838.44 1739.28 3815.96 1763.08C3749.84 1837.13 3608.36 1862.26 3543.56 1810.69C3525.05 1796.14 3509.18 1780.27 3509.18 1774.98C3509.18 1769.69 3546.21 1745.89 3592.49 1723.41C3637.45 1699.61 3695.63 1662.59 3720.75 1640.11C3745.87 1618.95 3769.68 1601.76 3774.97 1600.44C3778.93 1600.44 3794.8 1630.85 3810.67 1669.2ZM5281.07 1653.33C5335.28 1695.65 5393.46 1727.38 5442.39 1745.89C5486.02 1760.44 5480.74 1784.24 5427.84 1815.98C5363.05 1854.32 5265.2 1839.78 5185.86 1780.27C5142.23 1749.86 5140.9 1731.35 5175.28 1655.98C5203.05 1593.83 5203.05 1593.83 5281.07 1653.33ZM3097.95 1638.79C3117.78 1658.62 3123.07 1691.68 3129.68 1839.78C3134.97 1937.63 3146.87 2052.67 3158.77 2096.3C3183.9 2200.77 3183.9 2199.44 3142.91 2188.86C3062.24 2169.03 3029.19 2112.17 3008.03 1958.78C2992.16 1834.49 2989.52 1737.96 3001.42 1662.59C3009.35 1621.6 3015.96 1613.66 3041.09 1613.66C3058.28 1613.66 3083.4 1624.24 3097.95 1638.79ZM5973.95 1812.01C5972.63 1974.65 5967.34 2015.64 5943.54 2077.79C5922.38 2134.65 5905.19 2157.13 5876.1 2169.03C5806.02 2198.12 5798.09 2183.58 5824.53 2080.44C5836.43 2028.87 5852.3 1912.5 5857.59 1819.94C5866.85 1636.14 5878.75 1609.7 5940.9 1616.31L5975.28 1620.27L5973.95 1812.01ZM3267.2 1712.84C3288.36 1727.38 3298.94 1753.83 3310.84 1827.88C3334.64 1982.59 3361.09 2077.79 3402.08 2159.77C3436.46 2231.18 3437.78 2237.79 3415.3 2248.37C3378.28 2269.52 3324.06 2264.24 3277.78 2235.15C3235.47 2208.7 3203.73 2151.84 3186.54 2069.86C3169.35 1985.23 3153.48 1776.31 3161.42 1728.7C3168.03 1682.42 3172 1678.46 3203.73 1686.39C3222.24 1690.36 3251.33 1703.58 3267.2 1712.84ZM5823.21 1788.21C5821.89 2023.58 5766.35 2202.09 5683.05 2241.76C5635.44 2264.24 5545.53 2260.27 5545.53 2235.15C5545.53 2229.86 5560.07 2194.15 5578.59 2157.13C5614.29 2088.37 5656.6 1933.66 5671.15 1819.94C5681.72 1743.25 5734.62 1679.78 5788.83 1679.78C5823.21 1679.78 5823.21 1679.78 5823.21 1788.21ZM3490.67 1821.26C3552.82 1880.77 3685.05 2159.77 3678.44 2217.96C3667.86 2306.55 3509.18 2278.78 3451 2178.29C3417.94 2121.43 3372.99 1977.3 3358.44 1884.74C3353.15 1855.64 3346.54 1814.65 3342.57 1793.5C3334.64 1755.15 3334.64 1755.15 3386.21 1763.08C3420.59 1769.69 3456.29 1788.21 3490.67 1821.26ZM5631.48 1821.26C5603.71 2016.97 5540.24 2191.51 5483.38 2229.86C5433.13 2262.91 5376.27 2274.81 5340.57 2261.59C5282.39 2239.11 5287.68 2199.44 5365.69 2030.19C5451.64 1843.74 5523.05 1759.12 5595.78 1759.12H5639.41L5631.48 1821.26ZM5171.32 1818.62C5224.21 1850.36 5225.53 1868.87 5180.57 1912.5C5155.45 1938.95 5139.58 1944.24 5111.81 1937.63C5053.63 1923.08 5049.66 1909.86 5082.72 1845.07C5099.91 1812.01 5117.1 1786.88 5121.07 1788.21C5125.04 1790.85 5148.84 1804.07 5171.32 1818.62ZM3768.35 1940.27C3811.99 1981.26 3842.4 2023.58 3852.98 2056.63C3862.24 2085.73 3878.11 2121.43 3888.68 2137.29C3904.55 2161.1 3903.23 2169.03 3882.07 2195.48C3862.24 2220.6 3849.01 2224.57 3810.67 2216.63C3785.54 2212.67 3752.49 2195.48 3736.62 2178.29C3696.95 2135.97 3597.78 1921.76 3607.03 1897.96C3611 1886.06 3630.83 1878.12 3657.28 1878.12C3691.66 1878.12 3716.78 1892.67 3768.35 1940.27ZM5386.85 1891.35C5386.85 1919.11 5263.88 2154.48 5237.43 2179.61C5191.15 2221.92 5129 2228.53 5097.27 2196.8L5069.5 2169.03L5102.56 2108.2C5121.07 2073.82 5135.61 2036.8 5135.61 2026.22C5135.61 2015.64 5163.38 1978.62 5199.08 1944.24C5254.62 1887.38 5267.84 1880.77 5324.7 1879.45C5359.08 1878.12 5386.85 1883.41 5386.85 1891.35ZM4028.85 2047.38C4067.19 2096.3 4091 2137.29 4085.71 2149.2C4075.13 2179.61 3994.47 2174.32 3952.15 2139.94C3916.45 2112.17 3879.43 2043.41 3879.43 2006.39C3879.43 1986.55 3929.67 1957.46 3952.15 1962.75C3958.77 1964.07 3994.47 2002.42 4028.85 2047.38ZM5076.11 1973.33C5111.81 1989.2 5111.81 2002.42 5074.79 2083.08C5041.73 2154.48 4935.95 2194.15 4897.6 2150.52C4885.7 2134.65 4894.96 2114.82 4951.81 2044.73C4990.16 1997.13 5025.86 1957.46 5031.15 1957.46C5037.76 1957.46 5057.6 1964.07 5076.11 1973.33Z"/>
</mask>
<path d="M8888.31 120.784C8893.6 163.098 8802.36 300.617 8738.89 349.542C8596.08 459.294 8344.84 522.764 7760.38 595.491C7546.17 623.259 7010.64 674.829 6943.2 674.829C6886.34 674.829 6886.34 643.094 6944.52 573.012C6973.61 538.632 7006.67 491.029 7018.57 467.227C7037.08 431.525 7047.66 424.914 7108.49 416.98C7322.7 390.534 7720.71 317.807 8161.04 225.246C8737.56 104.917 8852.61 82.4379 8871.12 86.4048C8879.05 87.7271 8885.66 103.594 8888.31 120.784ZM500.946 165.743C1282.43 327.064 1515.15 370.699 1721.43 399.79L1936.97 430.203L1964.73 476.484C1980.6 501.607 2012.34 547.888 2037.46 578.301C2082.42 633.837 2093 668.217 2066.55 677.473C2052.01 682.763 2001.76 678.796 1677.79 648.383C1143.58 599.458 684.746 530.698 481.112 469.872C323.758 423.591 210.04 342.931 134.668 226.569C91.0324 157.809 84.4209 93.0161 121.445 93.0161C134.668 93.0161 305.245 126.074 500.946 165.743ZM2297.95 435.492C2373.33 456.649 2501.59 484.417 2582.25 497.64C2729.02 521.442 2731.67 522.764 2748.86 563.755C2758.12 587.557 2791.17 633.837 2821.59 666.895C2894.31 746.233 2883.73 750.2 2649.69 729.043C2234.48 693.341 2038.78 599.458 1975.31 406.401C1947.54 320.452 1960.77 313.84 2067.87 357.476C2119.44 378.633 2222.58 414.335 2297.95 435.492ZM7006.67 332.353C7035.76 378.633 6955.1 528.053 6870.47 587.557C6809.65 628.548 6653.62 684.085 6543.87 701.275C6419.57 721.109 6141.89 743.589 6127.34 734.332C6119.41 729.043 6133.95 701.275 6160.4 669.54C6185.52 639.127 6214.61 591.524 6226.51 565.078C6242.38 525.409 6254.28 516.153 6295.27 509.541C6550.48 471.194 6838.74 395.823 6944.52 338.964C6988.16 315.163 6996.09 313.84 7006.67 332.353ZM2908.86 480.45C3004.06 543.921 3034.48 554.499 3189.19 575.656C3349.18 598.135 3580.59 603.517 3674.47 685.5C3736.62 739.714 3815.35 793.625 3854.5 982.5C3854.5 1019.52 3730 1109 3784.5 1220C3796.4 1292.73 3691.66 1291.02 3686.37 1294.99C3674.47 1306.89 3636.12 1255.32 3539.6 1092.68C3491.99 1012.02 3432.49 922.099 3410.01 893.009C3351.83 820.282 3256.62 771.357 3137.62 752.845C2969.68 726.399 2907.54 705.242 2857.29 654.994C2787.21 584.912 2746.21 476.484 2777.95 446.071C2797.78 426.236 2849.35 439.459 2908.86 480.45ZM6257 436.814C6250.29 491.674 6137.92 656.317 6071.8 690.696C6045.36 705.242 5960.73 727.721 5882.71 740.944C5648.67 783.258 5601.06 818.96 5455.61 1064.91C5353.79 1234.16 5300.9 1308.21 5289 1294.99C5285.03 1291.02 5199.43 1277.54 5191.5 1222C5137 1089.5 5140.9 1082.1 5121.07 1039.78C5020.82 825.925 5228.18 733.01 5300.9 669.54C5388.17 592.846 5627.51 596.813 5779.58 575.656C5927.67 554.499 6012.3 524.086 6077.09 469.872C6102.22 448.715 6127.34 436.814 6163.04 436.814H6210.65H6257ZM569.706 529.376C827.555 590.201 1295.65 653.672 1783.58 694.663C1922.42 705.242 2048.04 718.465 2062.58 721.109C2078.45 725.076 2098.29 744.911 2107.54 767.39C2116.8 789.869 2141.92 832.183 2163.08 862.596C2194.81 904.909 2198.78 918.132 2184.24 928.711C2159.11 945.901 1303.58 930.033 1036.48 907.554C798.464 886.397 683.424 857.306 586.896 796.481C469.211 721.109 359.46 576.979 379.294 524.086C389.873 496.318 430.864 497.64 569.706 529.376ZM8606.66 516.153C8621.2 539.954 8564.34 641.771 8496.91 711.853C8373.93 837.472 8228.48 883.753 7879.39 910.199C7696.91 924.744 6775.27 931.355 6775.27 918.132C6775.27 914.165 6793.78 887.719 6814.94 859.951C6837.42 832.183 6863.86 788.547 6874.44 762.101C6888.99 729.043 6903.53 714.498 6922.04 714.498C6978.9 714.498 7544.85 660.284 7747.16 635.16C7971.95 606.069 8285.34 555.822 8428.15 524.086C8532.61 501.607 8596.08 498.963 8606.66 516.153ZM2292.67 709.209C2378.61 734.332 2582.25 764.745 2742.25 775.324C2845.39 781.935 2885.06 789.869 2898.28 805.737C2920.76 833.505 3006.71 985.57 3006.71 996.148C3006.71 1010.69 2572.99 1006.73 2487.04 992.181C2393.16 977.636 2272.83 924.744 2222.58 875.819C2157.79 814.993 2102.25 684.085 2128.7 658.961C2132.67 653.672 2157.79 660.284 2184.24 670.862C2210.68 682.763 2259.61 698.63 2292.67 709.209ZM6858.57 664.25C6869.15 695.986 6825.52 792.514 6775.27 850.695C6672.13 967.058 6504.2 1009.37 6170.98 1002.76L5969.99 998.793L6005.69 928.711C6025.52 889.042 6055.94 840.117 6074.45 818.96C6106.18 779.291 6111.47 779.291 6286.02 766.068C6484.36 751.522 6668.16 717.142 6768.66 677.473C6850.64 644.416 6850.64 644.416 6858.57 664.25ZM3105.88 785.902C3215.63 805.737 3324.06 841.439 3324.06 859.951C3324.06 878.463 3140.26 889.042 3066.21 873.174C3013.32 862.596 2985.55 848.05 2960.43 818.96C2918.11 767.39 2918.11 750.2 2964.39 759.456C2984.23 764.745 3047.7 776.646 3105.88 785.902ZM6048 768.712C6048 797.803 6018.91 833.505 5981.89 853.34C5930.32 879.786 5677.76 882.43 5677.76 855.984C5677.76 833.505 5778.25 797.803 5903.87 775.324C6029.49 751.522 6048 751.522 6048 768.712ZM5962.05 923.422C5958.09 934 5955.44 943.256 5955.44 947.223C5955.44 960.446 5874.78 989.537 5811.31 997.47C5724.04 1009.37 5558.75 993.504 5558.75 974.991C5558.75 967.058 5570.65 948.545 5583.87 934C5607.68 908.876 5624.87 906.232 5788.83 906.232C5932.96 906.232 5967.34 910.199 5962.05 923.422ZM3392.82 935.322C3436.46 974.991 3421.91 989.537 3329.35 998.793C3174.64 1015.98 3035.8 986.892 3015.96 932.678C3002.74 902.265 3357.12 903.587 3392.82 935.322ZM1770.36 964.413C2283.41 965.735 2338.95 971.024 2338.95 1017.31C2338.95 1070.2 1660.6 1228.87 1430.52 1230.2C1282.43 1230.2 1154.16 1186.56 1043.09 1097.97C992.842 1058.3 943.917 997.47 943.917 974.991C943.917 952.512 1000.78 945.901 1131.68 953.835C1207.06 959.124 1493.99 963.091 1770.36 964.413ZM8016.91 951.19C8049.97 972.347 8020.88 1029.21 7948.15 1086.06C7756.42 1239.45 7542.2 1260.61 7133.61 1169.37C6912.79 1120.44 6665.52 1046.4 6643.04 1025.24C6595.44 976.314 6635.1 972.347 7264.52 964.413C7599.06 960.446 7876.75 952.512 7882.04 948.545C7893.94 935.322 7995.75 937.967 8016.91 951.19ZM6583.54 1058.3C6578.25 1075.49 6550.48 1113.83 6521.39 1145.57C6451.3 1220.94 6373.29 1247.39 6211.97 1246.06C6070.48 1246.06 5836.43 1207.72 5836.43 1185.24C5836.43 1160.11 5886.68 1087.39 5918.42 1067.55C5940.9 1053.01 6014.95 1046.4 6213.29 1039.78C6358.74 1035.82 6498.91 1027.88 6524.03 1021.27C6578.25 1006.73 6596.76 1018.63 6583.54 1058.3ZM2722.41 1039.78C3054.31 1047.72 3049.02 1046.4 3105.88 1120.44C3131 1153.5 3152.16 1185.24 3152.16 1190.53C3152.16 1195.82 3096.62 1211.68 3030.51 1224.91C2883.73 1254 2653.65 1257.96 2579.6 1231.52C2491.01 1201.1 2398.45 1100.61 2398.45 1037.14C2398.45 1019.95 2406.38 1017.3 2435.47 1023.92C2455.31 1029.21 2584.89 1035.82 2722.41 1039.78ZM3466.87 1054.33C3462.9 1074.16 3444.39 1078.13 3337.28 1082.1C3259.27 1084.74 3191.83 1079.45 3158.77 1068.87L3105.88 1051.68L3205.05 1043.75C3259.27 1039.78 3341.25 1035.82 3387.53 1034.49C3461.58 1031.85 3470.84 1034.49 3466.87 1054.33ZM5862.88 1045.07C5862.88 1071.52 5761.06 1088.71 5640.73 1080.78C5511.15 1072.84 5497.92 1068.87 5512.47 1045.07C5523.05 1027.88 5862.88 1027.88 5862.88 1045.07ZM6828.16 1129.7C6918.08 1156.15 7116.42 1203.75 7267.17 1234.16C7419.23 1264.58 7540.88 1294.99 7538.24 1301.6C7528.98 1330.69 7437.74 1390.19 7366.34 1415.32C7255.26 1454.99 7141.55 1451.02 6998.74 1402.09C6881.05 1363.75 6632.46 1246.06 6579.57 1205.07L6551.8 1183.92L6587.5 1127.06C6609.98 1091.35 6631.14 1072.84 6643.04 1076.81C6653.62 1079.45 6736.92 1103.25 6828.16 1129.7ZM2390.52 1128.38C2444.73 1198.46 2452.66 1190.53 2230.52 1301.6C1952.83 1440.44 1774.32 1473.5 1611.68 1416.64C1528.37 1387.55 1433.17 1330.69 1433.17 1309.53C1433.17 1287.05 1484.74 1269.86 1594.49 1255.32C1734.65 1238.13 1967.38 1186.56 2153.82 1131.02C2342.91 1075.49 2350.85 1075.49 2390.52 1128.38ZM3514.47 1132.35C3562.08 1179.95 3542.24 1190.53 3404.72 1190.53C3276.46 1190.53 3178.61 1168.05 3178.61 1137.63C3178.61 1131.02 3236.79 1123.09 3308.19 1120.44C3378.27 1119.12 3449.68 1115.16 3465.55 1113.83C3481.41 1112.51 3503.89 1120.44 3514.47 1132.35ZM5759.74 1124.41C5820.57 1124.41 5816.6 1142.92 5747.84 1170.69C5692.3 1194.49 5439.74 1198.46 5439.74 1175.98C5439.74 1168.05 5446.36 1149.54 5454.29 1134.99C5468.83 1108.54 5476.77 1108.54 5589.16 1116.48C5653.96 1120.44 5731.97 1124.41 5759.74 1124.41ZM2522.75 1254C2551.84 1273.83 2576.96 1297.63 2580.93 1306.89C2588.86 1330.69 2364.07 1551.51 2295.31 1585.89C2164.4 1652.01 2005.73 1646.72 1933 1572.67C1897.3 1536.97 1895.97 1533 1915.81 1503.91C1929.03 1484.08 1980.6 1453.66 2052.01 1423.25C2115.48 1396.81 2233.16 1339.95 2312.5 1297.63C2393.16 1255.32 2460.6 1219.62 2464.56 1218.29C2468.53 1218.29 2494.98 1234.16 2522.75 1254ZM5710.82 1236.81C5718.75 1238.13 5694.95 1254 5657.92 1271.19C5609 1293.67 5568.01 1301.6 5496.6 1301.6C5386.85 1301.6 5355.12 1285.73 5392.14 1244.74C5411.98 1222.26 5429.17 1220.94 5556.11 1226.23C5634.12 1230.2 5704.2 1234.16 5710.82 1236.81ZM6707.83 1314.82C6813.62 1369.04 6926.01 1420.61 6957.75 1429.86C6989.48 1439.12 7029.15 1462.92 7047.66 1484.08C7088.65 1534.33 7072.79 1566.06 6989.48 1603.08C6903.53 1641.43 6779.24 1630.85 6682.71 1579.28C6590.15 1529.04 6402.38 1341.27 6407.67 1304.24C6410.31 1281.77 6485.68 1216.97 6508.16 1216.97C6510.81 1216.97 6600.73 1260.61 6707.83 1314.82ZM3244.72 1276.48C3300.26 1333.34 3301.58 1330.69 3125.72 1390.19C2974.97 1440.44 2817.62 1449.7 2747.54 1411.35C2705.22 1388.87 2623.24 1314.82 2623.24 1298.96C2623.24 1293.67 2690.68 1288.38 2772.66 1285.73C2853.32 1284.41 2977.62 1271.19 3046.38 1257.96C3115.14 1244.74 3178.61 1232.84 3186.54 1231.52C3193.15 1231.52 3220.92 1251.35 3244.72 1276.48ZM3593.81 1259.29C3614.97 1294.99 3593.81 1302.92 3478.77 1302.92C3372.99 1301.6 3271.17 1272.51 3271.17 1242.1C3271.17 1234.16 3337.28 1231.52 3424.56 1232.84C3552.82 1236.81 3581.91 1240.77 3593.81 1259.29ZM5995.11 1263.25C6063.87 1273.83 6172.3 1283.09 6237.09 1283.09C6300.56 1283.09 6352.13 1288.38 6352.13 1293.67C6352.13 1314.82 6266.18 1392.84 6223.87 1410.03C6173.62 1432.51 6009.66 1433.83 5935.61 1414C5888 1402.09 5705.53 1335.98 5692.3 1328.05C5689.66 1325.4 5708.17 1302.92 5731.97 1276.48C5771.64 1234.16 5782.22 1228.87 5823.21 1235.48C5848.34 1240.77 5926.35 1252.67 5995.11 1263.25ZM3456.29 1349.2C3456.29 1371.68 3306.87 1480.11 3207.7 1529.04C3123.07 1571.35 3101.91 1576.64 3038.44 1571.35C2982.91 1566.06 2957.78 1556.8 2927.37 1527.71C2906.21 1507.88 2891.67 1486.72 2894.31 1481.43C2896.96 1476.14 2931.34 1468.21 2969.68 1464.24C3037.12 1457.63 3154.81 1423.25 3310.84 1363.75C3388.85 1334.66 3456.29 1328.05 3456.29 1349.2ZM3675.79 1355.81C3699.59 1374.33 3696.95 1379.62 3611 1462.92C3507.86 1562.09 3406.04 1630.85 3328.03 1653.33C3284.39 1666.56 3264.56 1666.56 3216.95 1650.69C3186.54 1640.11 3158.77 1625.56 3156.13 1617.63C3153.48 1609.7 3182.57 1587.22 3220.92 1567.38C3259.27 1547.55 3333.32 1501.27 3383.56 1464.24C3544.89 1347.88 3564.72 1335.98 3607.03 1335.98C3630.83 1335.98 3661.25 1345.24 3675.79 1355.81ZM5544.21 1421.93C5605.03 1468.21 5694.95 1526.39 5742.55 1550.19C5790.15 1573.99 5832.47 1595.15 5835.11 1597.8C5849.66 1605.73 5799.41 1638.79 5757.1 1650.69C5656.6 1677.13 5534.95 1616.31 5360.41 1453.66C5279.75 1376.97 5275.78 1371.68 5300.9 1354.49C5314.12 1343.91 5349.83 1335.98 5378.92 1335.98C5425.2 1337.3 5450.32 1349.2 5544.21 1421.93ZM5747.84 1388.87C5824.53 1417.96 5932.96 1448.38 5988.5 1457.63C6051.97 1466.89 6087.67 1478.79 6087.67 1489.37C6087.67 1498.62 6061.23 1522.42 6026.85 1542.26C5954.12 1584.57 5891.97 1581.93 5779.58 1530.36C5702.88 1495.98 5519.08 1366.39 5519.08 1346.56C5519.08 1321.43 5616.93 1339.95 5747.84 1388.87ZM2612.66 1637.46C2616.63 1850.36 2616.63 1851.68 2587.54 1851.68C2521.42 1851.68 2471.18 1727.38 2480.43 1585.89C2487.04 1495.98 2514.81 1437.8 2576.96 1386.23C2610.02 1359.78 2607.37 1346.56 2612.66 1637.46ZM6426.18 1404.74C6446.02 1428.54 6469.82 1466.89 6480.4 1490.69C6500.23 1540.94 6502.87 1679.78 6484.36 1748.54C6469.82 1800.11 6416.92 1851.68 6378.58 1851.68C6358.74 1851.68 6358.74 1842.42 6368 1761.76C6374.61 1712.84 6377.26 1603.08 6371.97 1517.14C6368 1424.57 6369.32 1362.43 6377.26 1362.43C6383.87 1362.43 6406.35 1382.26 6426.18 1404.74ZM2781.92 1657.3C2781.92 1760.44 2789.85 1882.09 2800.43 1928.37C2809.69 1973.33 2814.97 2013 2812.33 2015.64C2809.69 2018.29 2792.5 2016.97 2775.31 2013C2725.06 2003.74 2680.1 1940.27 2661.59 1855.64C2644.4 1772.34 2637.79 1444.41 2653.65 1419.28C2660.27 1408.71 2680.1 1414 2722.41 1437.8L2781.92 1470.85V1657.3ZM6330.98 1431.19C6344.2 1481.43 6340.23 1698.29 6324.36 1805.4C6307.17 1921.76 6272.79 1981.26 6208 2006.39L6163.04 2024.9L6173.62 1974.65C6178.91 1946.88 6188.17 1821.26 6192.13 1695.65L6200.07 1466.89L6252.96 1436.47C6320.4 1396.81 6320.4 1396.81 6330.98 1431.19ZM3719.43 1595.15C3650.67 1666.56 3532.98 1719.45 3444.39 1719.45C3342.57 1719.45 3317.45 1700.94 3380.92 1674.49C3447.03 1648.04 3525.05 1592.51 3633.48 1493.33L3726.04 1411.35L3744.55 1480.11L3764.39 1548.87L3719.43 1595.15ZM5422.55 1555.48C5467.51 1592.51 5533.63 1637.46 5570.65 1654.65C5646.02 1690.36 5652.63 1702.26 5603.71 1714.16C5517.76 1735.31 5363.05 1686.39 5281.07 1609.7C5214.95 1548.87 5213.63 1543.58 5236.11 1477.47L5257.27 1415.32L5299.58 1452.34C5323.38 1472.18 5378.92 1518.46 5422.55 1555.48ZM2935.3 1585.89C2963.07 1599.12 2964.39 1611.02 2971.01 1814.65C2973.65 1933.66 2981.58 2043.41 2986.87 2059.28C2994.81 2084.4 2992.16 2089.69 2968.36 2089.69C2869.19 2089.69 2832.16 2001.1 2824.23 1743.25C2821.59 1636.14 2821.59 1538.29 2826.88 1526.39C2834.81 1506.56 2840.1 1507.88 2871.83 1536.97C2891.67 1555.48 2920.76 1577.96 2935.3 1585.89ZM6159.08 1622.92C6167.01 1739.28 6151.14 1928.37 6127.34 1991.84C6108.83 2038.12 6049.33 2089.69 6014.95 2089.69C5987.18 2089.69 5985.85 2085.73 5996.43 2039.44C6004.37 2013 6012.3 1901.93 6014.95 1792.17L6021.56 1593.83L6074.45 1563.42C6103.54 1546.23 6127.34 1526.39 6127.34 1519.78C6127.34 1513.17 6132.63 1507.88 6139.24 1507.88C6144.53 1507.88 6153.79 1559.45 6159.08 1622.92ZM2423.57 1733.99C2386.55 1756.47 2280.76 1679.78 2295.31 1638.79C2297.95 1632.18 2329.69 1607.05 2365.39 1581.93L2431.51 1538.29L2435.47 1630.85C2438.12 1691.68 2434.15 1727.38 2423.57 1733.99ZM6616.59 1581.93C6652.29 1608.37 6682.71 1637.46 6682.71 1648.04C6682.71 1683.75 6619.24 1735.31 6579.57 1730.03C6545.19 1726.06 6543.87 1723.41 6539.9 1629.53C6537.25 1577.96 6539.9 1534.33 6543.87 1534.33C6547.83 1534.33 6579.57 1555.48 6616.59 1581.93ZM3810.67 1669.2C3838.44 1733.99 3838.44 1739.28 3815.96 1763.08C3749.84 1837.13 3608.36 1862.26 3543.56 1810.69C3525.05 1796.14 3509.18 1780.27 3509.18 1774.98C3509.18 1769.69 3546.21 1745.89 3592.49 1723.41C3637.45 1699.61 3695.63 1662.59 3720.75 1640.11C3745.87 1618.95 3769.68 1601.76 3774.97 1600.44C3778.93 1600.44 3794.8 1630.85 3810.67 1669.2ZM5281.07 1653.33C5335.28 1695.65 5393.46 1727.38 5442.39 1745.89C5486.02 1760.44 5480.74 1784.24 5427.84 1815.98C5363.05 1854.32 5265.2 1839.78 5185.86 1780.27C5142.23 1749.86 5140.9 1731.35 5175.28 1655.98C5203.05 1593.83 5203.05 1593.83 5281.07 1653.33ZM3097.95 1638.79C3117.78 1658.62 3123.07 1691.68 3129.68 1839.78C3134.97 1937.63 3146.87 2052.67 3158.77 2096.3C3183.9 2200.77 3183.9 2199.44 3142.91 2188.86C3062.24 2169.03 3029.19 2112.17 3008.03 1958.78C2992.16 1834.49 2989.52 1737.96 3001.42 1662.59C3009.35 1621.6 3015.96 1613.66 3041.09 1613.66C3058.28 1613.66 3083.4 1624.24 3097.95 1638.79ZM5973.95 1812.01C5972.63 1974.65 5967.34 2015.64 5943.54 2077.79C5922.38 2134.65 5905.19 2157.13 5876.1 2169.03C5806.02 2198.12 5798.09 2183.58 5824.53 2080.44C5836.43 2028.87 5852.3 1912.5 5857.59 1819.94C5866.85 1636.14 5878.75 1609.7 5940.9 1616.31L5975.28 1620.27L5973.95 1812.01ZM3267.2 1712.84C3288.36 1727.38 3298.94 1753.83 3310.84 1827.88C3334.64 1982.59 3361.09 2077.79 3402.08 2159.77C3436.46 2231.18 3437.78 2237.79 3415.3 2248.37C3378.28 2269.52 3324.06 2264.24 3277.78 2235.15C3235.47 2208.7 3203.73 2151.84 3186.54 2069.86C3169.35 1985.23 3153.48 1776.31 3161.42 1728.7C3168.03 1682.42 3172 1678.46 3203.73 1686.39C3222.24 1690.36 3251.33 1703.58 3267.2 1712.84ZM5823.21 1788.21C5821.89 2023.58 5766.35 2202.09 5683.05 2241.76C5635.44 2264.24 5545.53 2260.27 5545.53 2235.15C5545.53 2229.86 5560.07 2194.15 5578.59 2157.13C5614.29 2088.37 5656.6 1933.66 5671.15 1819.94C5681.72 1743.25 5734.62 1679.78 5788.83 1679.78C5823.21 1679.78 5823.21 1679.78 5823.21 1788.21ZM3490.67 1821.26C3552.82 1880.77 3685.05 2159.77 3678.44 2217.96C3667.86 2306.55 3509.18 2278.78 3451 2178.29C3417.94 2121.43 3372.99 1977.3 3358.44 1884.74C3353.15 1855.64 3346.54 1814.65 3342.57 1793.5C3334.64 1755.15 3334.64 1755.15 3386.21 1763.08C3420.59 1769.69 3456.29 1788.21 3490.67 1821.26ZM5631.48 1821.26C5603.71 2016.97 5540.24 2191.51 5483.38 2229.86C5433.13 2262.91 5376.27 2274.81 5340.57 2261.59C5282.39 2239.11 5287.68 2199.44 5365.69 2030.19C5451.64 1843.74 5523.05 1759.12 5595.78 1759.12H5639.41L5631.48 1821.26ZM5171.32 1818.62C5224.21 1850.36 5225.53 1868.87 5180.57 1912.5C5155.45 1938.95 5139.58 1944.24 5111.81 1937.63C5053.63 1923.08 5049.66 1909.86 5082.72 1845.07C5099.91 1812.01 5117.1 1786.88 5121.07 1788.21C5125.04 1790.85 5148.84 1804.07 5171.32 1818.62ZM3768.35 1940.27C3811.99 1981.26 3842.4 2023.58 3852.98 2056.63C3862.24 2085.73 3878.11 2121.43 3888.68 2137.29C3904.55 2161.1 3903.23 2169.03 3882.07 2195.48C3862.24 2220.6 3849.01 2224.57 3810.67 2216.63C3785.54 2212.67 3752.49 2195.48 3736.62 2178.29C3696.95 2135.97 3597.78 1921.76 3607.03 1897.96C3611 1886.06 3630.83 1878.12 3657.28 1878.12C3691.66 1878.12 3716.78 1892.67 3768.35 1940.27ZM5386.85 1891.35C5386.85 1919.11 5263.88 2154.48 5237.43 2179.61C5191.15 2221.92 5129 2228.53 5097.27 2196.8L5069.5 2169.03L5102.56 2108.2C5121.07 2073.82 5135.61 2036.8 5135.61 2026.22C5135.61 2015.64 5163.38 1978.62 5199.08 1944.24C5254.62 1887.38 5267.84 1880.77 5324.7 1879.45C5359.08 1878.12 5386.85 1883.41 5386.85 1891.35ZM4028.85 2047.38C4067.19 2096.3 4091 2137.29 4085.71 2149.2C4075.13 2179.61 3994.47 2174.32 3952.15 2139.94C3916.45 2112.17 3879.43 2043.41 3879.43 2006.39C3879.43 1986.55 3929.67 1957.46 3952.15 1962.75C3958.77 1964.07 3994.47 2002.42 4028.85 2047.38ZM5076.11 1973.33C5111.81 1989.2 5111.81 2002.42 5074.79 2083.08C5041.73 2154.48 4935.95 2194.15 4897.6 2150.52C4885.7 2134.65 4894.96 2114.82 4951.81 2044.73C4990.16 1997.13 5025.86 1957.46 5031.15 1957.46C5037.76 1957.46 5057.6 1964.07 5076.11 1973.33Z" fill="url(#paint0_linear_697_699)" style="mix-blend-mode:darken"/>
<path d="M8888.31 120.784C8893.6 163.098 8802.36 300.617 8738.89 349.542C8596.08 459.294 8344.84 522.764 7760.38 595.491C7546.17 623.259 7010.64 674.829 6943.2 674.829C6886.34 674.829 6886.34 643.094 6944.52 573.012C6973.61 538.632 7006.67 491.029 7018.57 467.227C7037.08 431.525 7047.66 424.914 7108.49 416.98C7322.7 390.534 7720.71 317.807 8161.04 225.246C8737.56 104.917 8852.61 82.4379 8871.12 86.4048C8879.05 87.7271 8885.66 103.594 8888.31 120.784ZM500.946 165.743C1282.43 327.064 1515.15 370.699 1721.43 399.79L1936.97 430.203L1964.73 476.484C1980.6 501.607 2012.34 547.888 2037.46 578.301C2082.42 633.837 2093 668.217 2066.55 677.473C2052.01 682.763 2001.76 678.796 1677.79 648.383C1143.58 599.458 684.746 530.698 481.112 469.872C323.758 423.591 210.04 342.931 134.668 226.569C91.0324 157.809 84.4209 93.0161 121.445 93.0161C134.668 93.0161 305.245 126.074 500.946 165.743ZM2297.95 435.492C2373.33 456.649 2501.59 484.417 2582.25 497.64C2729.02 521.442 2731.67 522.764 2748.86 563.755C2758.12 587.557 2791.17 633.837 2821.59 666.895C2894.31 746.233 2883.73 750.2 2649.69 729.043C2234.48 693.341 2038.78 599.458 1975.31 406.401C1947.54 320.452 1960.77 313.84 2067.87 357.476C2119.44 378.633 2222.58 414.335 2297.95 435.492ZM7006.67 332.353C7035.76 378.633 6955.1 528.053 6870.47 587.557C6809.65 628.548 6653.62 684.085 6543.87 701.275C6419.57 721.109 6141.89 743.589 6127.34 734.332C6119.41 729.043 6133.95 701.275 6160.4 669.54C6185.52 639.127 6214.61 591.524 6226.51 565.078C6242.38 525.409 6254.28 516.153 6295.27 509.541C6550.48 471.194 6838.74 395.823 6944.52 338.964C6988.16 315.163 6996.09 313.84 7006.67 332.353ZM2908.86 480.45C3004.06 543.921 3034.48 554.499 3189.19 575.656C3349.18 598.135 3580.59 603.517 3674.47 685.5C3736.62 739.714 3815.35 793.625 3854.5 982.5C3854.5 1019.52 3730 1109 3784.5 1220C3796.4 1292.73 3691.66 1291.02 3686.37 1294.99C3674.47 1306.89 3636.12 1255.32 3539.6 1092.68C3491.99 1012.02 3432.49 922.099 3410.01 893.009C3351.83 820.282 3256.62 771.357 3137.62 752.845C2969.68 726.399 2907.54 705.242 2857.29 654.994C2787.21 584.912 2746.21 476.484 2777.95 446.071C2797.78 426.236 2849.35 439.459 2908.86 480.45ZM6257 436.814C6250.29 491.674 6137.92 656.317 6071.8 690.696C6045.36 705.242 5960.73 727.721 5882.71 740.944C5648.67 783.258 5601.06 818.96 5455.61 1064.91C5353.79 1234.16 5300.9 1308.21 5289 1294.99C5285.03 1291.02 5199.43 1277.54 5191.5 1222C5137 1089.5 5140.9 1082.1 5121.07 1039.78C5020.82 825.925 5228.18 733.01 5300.9 669.54C5388.17 592.846 5627.51 596.813 5779.58 575.656C5927.67 554.499 6012.3 524.086 6077.09 469.872C6102.22 448.715 6127.34 436.814 6163.04 436.814H6210.65H6257ZM569.706 529.376C827.555 590.201 1295.65 653.672 1783.58 694.663C1922.42 705.242 2048.04 718.465 2062.58 721.109C2078.45 725.076 2098.29 744.911 2107.54 767.39C2116.8 789.869 2141.92 832.183 2163.08 862.596C2194.81 904.909 2198.78 918.132 2184.24 928.711C2159.11 945.901 1303.58 930.033 1036.48 907.554C798.464 886.397 683.424 857.306 586.896 796.481C469.211 721.109 359.46 576.979 379.294 524.086C389.873 496.318 430.864 497.64 569.706 529.376ZM8606.66 516.153C8621.2 539.954 8564.34 641.771 8496.91 711.853C8373.93 837.472 8228.48 883.753 7879.39 910.199C7696.91 924.744 6775.27 931.355 6775.27 918.132C6775.27 914.165 6793.78 887.719 6814.94 859.951C6837.42 832.183 6863.86 788.547 6874.44 762.101C6888.99 729.043 6903.53 714.498 6922.04 714.498C6978.9 714.498 7544.85 660.284 7747.16 635.16C7971.95 606.069 8285.34 555.822 8428.15 524.086C8532.61 501.607 8596.08 498.963 8606.66 516.153ZM2292.67 709.209C2378.61 734.332 2582.25 764.745 2742.25 775.324C2845.39 781.935 2885.06 789.869 2898.28 805.737C2920.76 833.505 3006.71 985.57 3006.71 996.148C3006.71 1010.69 2572.99 1006.73 2487.04 992.181C2393.16 977.636 2272.83 924.744 2222.58 875.819C2157.79 814.993 2102.25 684.085 2128.7 658.961C2132.67 653.672 2157.79 660.284 2184.24 670.862C2210.68 682.763 2259.61 698.63 2292.67 709.209ZM6858.57 664.25C6869.15 695.986 6825.52 792.514 6775.27 850.695C6672.13 967.058 6504.2 1009.37 6170.98 1002.76L5969.99 998.793L6005.69 928.711C6025.52 889.042 6055.94 840.117 6074.45 818.96C6106.18 779.291 6111.47 779.291 6286.02 766.068C6484.36 751.522 6668.16 717.142 6768.66 677.473C6850.64 644.416 6850.64 644.416 6858.57 664.25ZM3105.88 785.902C3215.63 805.737 3324.06 841.439 3324.06 859.951C3324.06 878.463 3140.26 889.042 3066.21 873.174C3013.32 862.596 2985.55 848.05 2960.43 818.96C2918.11 767.39 2918.11 750.2 2964.39 759.456C2984.23 764.745 3047.7 776.646 3105.88 785.902ZM6048 768.712C6048 797.803 6018.91 833.505 5981.89 853.34C5930.32 879.786 5677.76 882.43 5677.76 855.984C5677.76 833.505 5778.25 797.803 5903.87 775.324C6029.49 751.522 6048 751.522 6048 768.712ZM5962.05 923.422C5958.09 934 5955.44 943.256 5955.44 947.223C5955.44 960.446 5874.78 989.537 5811.31 997.47C5724.04 1009.37 5558.75 993.504 5558.75 974.991C5558.75 967.058 5570.65 948.545 5583.87 934C5607.68 908.876 5624.87 906.232 5788.83 906.232C5932.96 906.232 5967.34 910.199 5962.05 923.422ZM3392.82 935.322C3436.46 974.991 3421.91 989.537 3329.35 998.793C3174.64 1015.98 3035.8 986.892 3015.96 932.678C3002.74 902.265 3357.12 903.587 3392.82 935.322ZM1770.36 964.413C2283.41 965.735 2338.95 971.024 2338.95 1017.31C2338.95 1070.2 1660.6 1228.87 1430.52 1230.2C1282.43 1230.2 1154.16 1186.56 1043.09 1097.97C992.842 1058.3 943.917 997.47 943.917 974.991C943.917 952.512 1000.78 945.901 1131.68 953.835C1207.06 959.124 1493.99 963.091 1770.36 964.413ZM8016.91 951.19C8049.97 972.347 8020.88 1029.21 7948.15 1086.06C7756.42 1239.45 7542.2 1260.61 7133.61 1169.37C6912.79 1120.44 6665.52 1046.4 6643.04 1025.24C6595.44 976.314 6635.1 972.347 7264.52 964.413C7599.06 960.446 7876.75 952.512 7882.04 948.545C7893.94 935.322 7995.75 937.967 8016.91 951.19ZM6583.54 1058.3C6578.25 1075.49 6550.48 1113.83 6521.39 1145.57C6451.3 1220.94 6373.29 1247.39 6211.97 1246.06C6070.48 1246.06 5836.43 1207.72 5836.43 1185.24C5836.43 1160.11 5886.68 1087.39 5918.42 1067.55C5940.9 1053.01 6014.95 1046.4 6213.29 1039.78C6358.74 1035.82 6498.91 1027.88 6524.03 1021.27C6578.25 1006.73 6596.76 1018.63 6583.54 1058.3ZM2722.41 1039.78C3054.31 1047.72 3049.02 1046.4 3105.88 1120.44C3131 1153.5 3152.16 1185.24 3152.16 1190.53C3152.16 1195.82 3096.62 1211.68 3030.51 1224.91C2883.73 1254 2653.65 1257.96 2579.6 1231.52C2491.01 1201.1 2398.45 1100.61 2398.45 1037.14C2398.45 1019.95 2406.38 1017.3 2435.47 1023.92C2455.31 1029.21 2584.89 1035.82 2722.41 1039.78ZM3466.87 1054.33C3462.9 1074.16 3444.39 1078.13 3337.28 1082.1C3259.27 1084.74 3191.83 1079.45 3158.77 1068.87L3105.88 1051.68L3205.05 1043.75C3259.27 1039.78 3341.25 1035.82 3387.53 1034.49C3461.58 1031.85 3470.84 1034.49 3466.87 1054.33ZM5862.88 1045.07C5862.88 1071.52 5761.06 1088.71 5640.73 1080.78C5511.15 1072.84 5497.92 1068.87 5512.47 1045.07C5523.05 1027.88 5862.88 1027.88 5862.88 1045.07ZM6828.16 1129.7C6918.08 1156.15 7116.42 1203.75 7267.17 1234.16C7419.23 1264.58 7540.88 1294.99 7538.24 1301.6C7528.98 1330.69 7437.74 1390.19 7366.34 1415.32C7255.26 1454.99 7141.55 1451.02 6998.74 1402.09C6881.05 1363.75 6632.46 1246.06 6579.57 1205.07L6551.8 1183.92L6587.5 1127.06C6609.98 1091.35 6631.14 1072.84 6643.04 1076.81C6653.62 1079.45 6736.92 1103.25 6828.16 1129.7ZM2390.52 1128.38C2444.73 1198.46 2452.66 1190.53 2230.52 1301.6C1952.83 1440.44 1774.32 1473.5 1611.68 1416.64C1528.37 1387.55 1433.17 1330.69 1433.17 1309.53C1433.17 1287.05 1484.74 1269.86 1594.49 1255.32C1734.65 1238.13 1967.38 1186.56 2153.82 1131.02C2342.91 1075.49 2350.85 1075.49 2390.52 1128.38ZM3514.47 1132.35C3562.08 1179.95 3542.24 1190.53 3404.72 1190.53C3276.46 1190.53 3178.61 1168.05 3178.61 1137.63C3178.61 1131.02 3236.79 1123.09 3308.19 1120.44C3378.27 1119.12 3449.68 1115.16 3465.55 1113.83C3481.41 1112.51 3503.89 1120.44 3514.47 1132.35ZM5759.74 1124.41C5820.57 1124.41 5816.6 1142.92 5747.84 1170.69C5692.3 1194.49 5439.74 1198.46 5439.74 1175.98C5439.74 1168.05 5446.36 1149.54 5454.29 1134.99C5468.83 1108.54 5476.77 1108.54 5589.16 1116.48C5653.96 1120.44 5731.97 1124.41 5759.74 1124.41ZM2522.75 1254C2551.84 1273.83 2576.96 1297.63 2580.93 1306.89C2588.86 1330.69 2364.07 1551.51 2295.31 1585.89C2164.4 1652.01 2005.73 1646.72 1933 1572.67C1897.3 1536.97 1895.97 1533 1915.81 1503.91C1929.03 1484.08 1980.6 1453.66 2052.01 1423.25C2115.48 1396.81 2233.16 1339.95 2312.5 1297.63C2393.16 1255.32 2460.6 1219.62 2464.56 1218.29C2468.53 1218.29 2494.98 1234.16 2522.75 1254ZM5710.82 1236.81C5718.75 1238.13 5694.95 1254 5657.92 1271.19C5609 1293.67 5568.01 1301.6 5496.6 1301.6C5386.85 1301.6 5355.12 1285.73 5392.14 1244.74C5411.98 1222.26 5429.17 1220.94 5556.11 1226.23C5634.12 1230.2 5704.2 1234.16 5710.82 1236.81ZM6707.83 1314.82C6813.62 1369.04 6926.01 1420.61 6957.75 1429.86C6989.48 1439.12 7029.15 1462.92 7047.66 1484.08C7088.65 1534.33 7072.79 1566.06 6989.48 1603.08C6903.53 1641.43 6779.24 1630.85 6682.71 1579.28C6590.15 1529.04 6402.38 1341.27 6407.67 1304.24C6410.31 1281.77 6485.68 1216.97 6508.16 1216.97C6510.81 1216.97 6600.73 1260.61 6707.83 1314.82ZM3244.72 1276.48C3300.26 1333.34 3301.58 1330.69 3125.72 1390.19C2974.97 1440.44 2817.62 1449.7 2747.54 1411.35C2705.22 1388.87 2623.24 1314.82 2623.24 1298.96C2623.24 1293.67 2690.68 1288.38 2772.66 1285.73C2853.32 1284.41 2977.62 1271.19 3046.38 1257.96C3115.14 1244.74 3178.61 1232.84 3186.54 1231.52C3193.15 1231.52 3220.92 1251.35 3244.72 1276.48ZM3593.81 1259.29C3614.97 1294.99 3593.81 1302.92 3478.77 1302.92C3372.99 1301.6 3271.17 1272.51 3271.17 1242.1C3271.17 1234.16 3337.28 1231.52 3424.56 1232.84C3552.82 1236.81 3581.91 1240.77 3593.81 1259.29ZM5995.11 1263.25C6063.87 1273.83 6172.3 1283.09 6237.09 1283.09C6300.56 1283.09 6352.13 1288.38 6352.13 1293.67C6352.13 1314.82 6266.18 1392.84 6223.87 1410.03C6173.62 1432.51 6009.66 1433.83 5935.61 1414C5888 1402.09 5705.53 1335.98 5692.3 1328.05C5689.66 1325.4 5708.17 1302.92 5731.97 1276.48C5771.64 1234.16 5782.22 1228.87 5823.21 1235.48C5848.34 1240.77 5926.35 1252.67 5995.11 1263.25ZM3456.29 1349.2C3456.29 1371.68 3306.87 1480.11 3207.7 1529.04C3123.07 1571.35 3101.91 1576.64 3038.44 1571.35C2982.91 1566.06 2957.78 1556.8 2927.37 1527.71C2906.21 1507.88 2891.67 1486.72 2894.31 1481.43C2896.96 1476.14 2931.34 1468.21 2969.68 1464.24C3037.12 1457.63 3154.81 1423.25 3310.84 1363.75C3388.85 1334.66 3456.29 1328.05 3456.29 1349.2ZM3675.79 1355.81C3699.59 1374.33 3696.95 1379.62 3611 1462.92C3507.86 1562.09 3406.04 1630.85 3328.03 1653.33C3284.39 1666.56 3264.56 1666.56 3216.95 1650.69C3186.54 1640.11 3158.77 1625.56 3156.13 1617.63C3153.48 1609.7 3182.57 1587.22 3220.92 1567.38C3259.27 1547.55 3333.32 1501.27 3383.56 1464.24C3544.89 1347.88 3564.72 1335.98 3607.03 1335.98C3630.83 1335.98 3661.25 1345.24 3675.79 1355.81ZM5544.21 1421.93C5605.03 1468.21 5694.95 1526.39 5742.55 1550.19C5790.15 1573.99 5832.47 1595.15 5835.11 1597.8C5849.66 1605.73 5799.41 1638.79 5757.1 1650.69C5656.6 1677.13 5534.95 1616.31 5360.41 1453.66C5279.75 1376.97 5275.78 1371.68 5300.9 1354.49C5314.12 1343.91 5349.83 1335.98 5378.92 1335.98C5425.2 1337.3 5450.32 1349.2 5544.21 1421.93ZM5747.84 1388.87C5824.53 1417.96 5932.96 1448.38 5988.5 1457.63C6051.97 1466.89 6087.67 1478.79 6087.67 1489.37C6087.67 1498.62 6061.23 1522.42 6026.85 1542.26C5954.12 1584.57 5891.97 1581.93 5779.58 1530.36C5702.88 1495.98 5519.08 1366.39 5519.08 1346.56C5519.08 1321.43 5616.93 1339.95 5747.84 1388.87ZM2612.66 1637.46C2616.63 1850.36 2616.63 1851.68 2587.54 1851.68C2521.42 1851.68 2471.18 1727.38 2480.43 1585.89C2487.04 1495.98 2514.81 1437.8 2576.96 1386.23C2610.02 1359.78 2607.37 1346.56 2612.66 1637.46ZM6426.18 1404.74C6446.02 1428.54 6469.82 1466.89 6480.4 1490.69C6500.23 1540.94 6502.87 1679.78 6484.36 1748.54C6469.82 1800.11 6416.92 1851.68 6378.58 1851.68C6358.74 1851.68 6358.74 1842.42 6368 1761.76C6374.61 1712.84 6377.26 1603.08 6371.97 1517.14C6368 1424.57 6369.32 1362.43 6377.26 1362.43C6383.87 1362.43 6406.35 1382.26 6426.18 1404.74ZM2781.92 1657.3C2781.92 1760.44 2789.85 1882.09 2800.43 1928.37C2809.69 1973.33 2814.97 2013 2812.33 2015.64C2809.69 2018.29 2792.5 2016.97 2775.31 2013C2725.06 2003.74 2680.1 1940.27 2661.59 1855.64C2644.4 1772.34 2637.79 1444.41 2653.65 1419.28C2660.27 1408.71 2680.1 1414 2722.41 1437.8L2781.92 1470.85V1657.3ZM6330.98 1431.19C6344.2 1481.43 6340.23 1698.29 6324.36 1805.4C6307.17 1921.76 6272.79 1981.26 6208 2006.39L6163.04 2024.9L6173.62 1974.65C6178.91 1946.88 6188.17 1821.26 6192.13 1695.65L6200.07 1466.89L6252.96 1436.47C6320.4 1396.81 6320.4 1396.81 6330.98 1431.19ZM3719.43 1595.15C3650.67 1666.56 3532.98 1719.45 3444.39 1719.45C3342.57 1719.45 3317.45 1700.94 3380.92 1674.49C3447.03 1648.04 3525.05 1592.51 3633.48 1493.33L3726.04 1411.35L3744.55 1480.11L3764.39 1548.87L3719.43 1595.15ZM5422.55 1555.48C5467.51 1592.51 5533.63 1637.46 5570.65 1654.65C5646.02 1690.36 5652.63 1702.26 5603.71 1714.16C5517.76 1735.31 5363.05 1686.39 5281.07 1609.7C5214.95 1548.87 5213.63 1543.58 5236.11 1477.47L5257.27 1415.32L5299.58 1452.34C5323.38 1472.18 5378.92 1518.46 5422.55 1555.48ZM2935.3 1585.89C2963.07 1599.12 2964.39 1611.02 2971.01 1814.65C2973.65 1933.66 2981.58 2043.41 2986.87 2059.28C2994.81 2084.4 2992.16 2089.69 2968.36 2089.69C2869.19 2089.69 2832.16 2001.1 2824.23 1743.25C2821.59 1636.14 2821.59 1538.29 2826.88 1526.39C2834.81 1506.56 2840.1 1507.88 2871.83 1536.97C2891.67 1555.48 2920.76 1577.96 2935.3 1585.89ZM6159.08 1622.92C6167.01 1739.28 6151.14 1928.37 6127.34 1991.84C6108.83 2038.12 6049.33 2089.69 6014.95 2089.69C5987.18 2089.69 5985.85 2085.73 5996.43 2039.44C6004.37 2013 6012.3 1901.93 6014.95 1792.17L6021.56 1593.83L6074.45 1563.42C6103.54 1546.23 6127.34 1526.39 6127.34 1519.78C6127.34 1513.17 6132.63 1507.88 6139.24 1507.88C6144.53 1507.88 6153.79 1559.45 6159.08 1622.92ZM2423.57 1733.99C2386.55 1756.47 2280.76 1679.78 2295.31 1638.79C2297.95 1632.18 2329.69 1607.05 2365.39 1581.93L2431.51 1538.29L2435.47 1630.85C2438.12 1691.68 2434.15 1727.38 2423.57 1733.99ZM6616.59 1581.93C6652.29 1608.37 6682.71 1637.46 6682.71 1648.04C6682.71 1683.75 6619.24 1735.31 6579.57 1730.03C6545.19 1726.06 6543.87 1723.41 6539.9 1629.53C6537.25 1577.96 6539.9 1534.33 6543.87 1534.33C6547.83 1534.33 6579.57 1555.48 6616.59 1581.93ZM3810.67 1669.2C3838.44 1733.99 3838.44 1739.28 3815.96 1763.08C3749.84 1837.13 3608.36 1862.26 3543.56 1810.69C3525.05 1796.14 3509.18 1780.27 3509.18 1774.98C3509.18 1769.69 3546.21 1745.89 3592.49 1723.41C3637.45 1699.61 3695.63 1662.59 3720.75 1640.11C3745.87 1618.95 3769.68 1601.76 3774.97 1600.44C3778.93 1600.44 3794.8 1630.85 3810.67 1669.2ZM5281.07 1653.33C5335.28 1695.65 5393.46 1727.38 5442.39 1745.89C5486.02 1760.44 5480.74 1784.24 5427.84 1815.98C5363.05 1854.32 5265.2 1839.78 5185.86 1780.27C5142.23 1749.86 5140.9 1731.35 5175.28 1655.98C5203.05 1593.83 5203.05 1593.83 5281.07 1653.33ZM3097.95 1638.79C3117.78 1658.62 3123.07 1691.68 3129.68 1839.78C3134.97 1937.63 3146.87 2052.67 3158.77 2096.3C3183.9 2200.77 3183.9 2199.44 3142.91 2188.86C3062.24 2169.03 3029.19 2112.17 3008.03 1958.78C2992.16 1834.49 2989.52 1737.96 3001.42 1662.59C3009.35 1621.6 3015.96 1613.66 3041.09 1613.66C3058.28 1613.66 3083.4 1624.24 3097.95 1638.79ZM5973.95 1812.01C5972.63 1974.65 5967.34 2015.64 5943.54 2077.79C5922.38 2134.65 5905.19 2157.13 5876.1 2169.03C5806.02 2198.12 5798.09 2183.58 5824.53 2080.44C5836.43 2028.87 5852.3 1912.5 5857.59 1819.94C5866.85 1636.14 5878.75 1609.7 5940.9 1616.31L5975.28 1620.27L5973.95 1812.01ZM3267.2 1712.84C3288.36 1727.38 3298.94 1753.83 3310.84 1827.88C3334.64 1982.59 3361.09 2077.79 3402.08 2159.77C3436.46 2231.18 3437.78 2237.79 3415.3 2248.37C3378.28 2269.52 3324.06 2264.24 3277.78 2235.15C3235.47 2208.7 3203.73 2151.84 3186.54 2069.86C3169.35 1985.23 3153.48 1776.31 3161.42 1728.7C3168.03 1682.42 3172 1678.46 3203.73 1686.39C3222.24 1690.36 3251.33 1703.58 3267.2 1712.84ZM5823.21 1788.21C5821.89 2023.58 5766.35 2202.09 5683.05 2241.76C5635.44 2264.24 5545.53 2260.27 5545.53 2235.15C5545.53 2229.86 5560.07 2194.15 5578.59 2157.13C5614.29 2088.37 5656.6 1933.66 5671.15 1819.94C5681.72 1743.25 5734.62 1679.78 5788.83 1679.78C5823.21 1679.78 5823.21 1679.78 5823.21 1788.21ZM3490.67 1821.26C3552.82 1880.77 3685.05 2159.77 3678.44 2217.96C3667.86 2306.55 3509.18 2278.78 3451 2178.29C3417.94 2121.43 3372.99 1977.3 3358.44 1884.74C3353.15 1855.64 3346.54 1814.65 3342.57 1793.5C3334.64 1755.15 3334.64 1755.15 3386.21 1763.08C3420.59 1769.69 3456.29 1788.21 3490.67 1821.26ZM5631.48 1821.26C5603.71 2016.97 5540.24 2191.51 5483.38 2229.86C5433.13 2262.91 5376.27 2274.81 5340.57 2261.59C5282.39 2239.11 5287.68 2199.44 5365.69 2030.19C5451.64 1843.74 5523.05 1759.12 5595.78 1759.12H5639.41L5631.48 1821.26ZM5171.32 1818.62C5224.21 1850.36 5225.53 1868.87 5180.57 1912.5C5155.45 1938.95 5139.58 1944.24 5111.81 1937.63C5053.63 1923.08 5049.66 1909.86 5082.72 1845.07C5099.91 1812.01 5117.1 1786.88 5121.07 1788.21C5125.04 1790.85 5148.84 1804.07 5171.32 1818.62ZM3768.35 1940.27C3811.99 1981.26 3842.4 2023.58 3852.98 2056.63C3862.24 2085.73 3878.11 2121.43 3888.68 2137.29C3904.55 2161.1 3903.23 2169.03 3882.07 2195.48C3862.24 2220.6 3849.01 2224.57 3810.67 2216.63C3785.54 2212.67 3752.49 2195.48 3736.62 2178.29C3696.95 2135.97 3597.78 1921.76 3607.03 1897.96C3611 1886.06 3630.83 1878.12 3657.28 1878.12C3691.66 1878.12 3716.78 1892.67 3768.35 1940.27ZM5386.85 1891.35C5386.85 1919.11 5263.88 2154.48 5237.43 2179.61C5191.15 2221.92 5129 2228.53 5097.27 2196.8L5069.5 2169.03L5102.56 2108.2C5121.07 2073.82 5135.61 2036.8 5135.61 2026.22C5135.61 2015.64 5163.38 1978.62 5199.08 1944.24C5254.62 1887.38 5267.84 1880.77 5324.7 1879.45C5359.08 1878.12 5386.85 1883.41 5386.85 1891.35ZM4028.85 2047.38C4067.19 2096.3 4091 2137.29 4085.71 2149.2C4075.13 2179.61 3994.47 2174.32 3952.15 2139.94C3916.45 2112.17 3879.43 2043.41 3879.43 2006.39C3879.43 1986.55 3929.67 1957.46 3952.15 1962.75C3958.77 1964.07 3994.47 2002.42 4028.85 2047.38ZM5076.11 1973.33C5111.81 1989.2 5111.81 2002.42 5074.79 2083.08C5041.73 2154.48 4935.95 2194.15 4897.6 2150.52C4885.7 2134.65 4894.96 2114.82 4951.81 2044.73C4990.16 1997.13 5025.86 1957.46 5031.15 1957.46C5037.76 1957.46 5057.6 1964.07 5076.11 1973.33Z" stroke="black" stroke-width="16" mask="url(#path-2-outside-1_697_699)"/>
<mask id="path-3-inside-2_697_699" fill="white">
<path d="M5295.46 836.278C5293 835.1 5288.4 833.654 5285.17 833.466C5281.93 833.277 5238.72 840.027 5188.98 848.566C5139.37 857.011 5094.55 864.428 5089.38 864.975C5074.31 866.453 5074.8 866.841 5047.37 834.285L5022.93 805.58L5021.09 796.768C5019.26 787.956 5019.66 786.485 5048.22 695.329C5064.03 644.404 5077.8 600.283 5078.63 597.128C5080.61 589.988 5078.85 581.51 5073.98 575.25C5069.95 570.074 4918.86 469.103 4911.96 466.934C4901.6 463.788 4894.7 466.834 4878.16 481.817C4844.79 512.398 4777.47 573.814 4761.92 587.835L4744.64 603.593L4735.06 605.435C4725.82 607.21 4723.81 606.848 4689.1 595.977C4669.13 589.672 4650.72 583.126 4648.22 581.4C4637.66 573.775 4637.09 572.29 4608.94 469.788C4580.04 364.584 4580.98 367.526 4569.47 361.411C4563.75 358.52 4383.02 355.523 4375.84 358.208C4371.6 359.958 4369.32 361.736 4366.58 365.412C4364.32 368.714 4353.97 404.572 4337.78 465.446C4315.75 547.859 4311.69 561.256 4307.45 566.482C4300.94 574.249 4300.94 574.249 4251.47 587.601C4207.37 599.672 4200.25 600.191 4189.58 593.421C4186.46 591.401 4151.31 560.593 4111.38 524.622C4035.4 456.212 4035 455.944 4023.67 456.261C4010.38 456.55 3854.15 553.099 3855.07 560.494C3855.15 561.591 3869.26 606.056 3886.3 659.254C3903.33 712.452 3917.56 758.562 3917.95 761.544C3919.55 773.044 3915.78 778.872 3881.45 817.155C3864.01 836.698 3847.22 854.582 3843.97 857.108C3840.24 860.008 3835.31 862.106 3830.87 862.853C3825.98 863.76 3793.94 859.309 3727.18 848.439C3674.06 839.714 3628.09 832.971 3625.13 833.144C3621.39 833.543 3617.7 835.254 3613.7 838.555C3608.16 842.858 3604.37 850.639 3572.11 920.145C3552.7 962.471 3536.31 999.745 3535.78 1003.05C3535.29 1006.14 3536.02 1011.55 3537.46 1014.88C3539.78 1020.61 3545.36 1025.54 3615.4 1083.11C3694.42 1147.99 3696.94 1150.47 3699.68 1162.44C3701.04 1168.92 3686.81 1269.8 3683.41 1277.85C3678.54 1288.97 3675.95 1290.6 3618.51 1315.56C3486.18 1373.06 3489.05 1371.79 3485.1 1377.37C3483.01 1380.15 3481.02 1384.79 3480.46 1387.55C3479.9 1390.3 3485.18 1430.62 3492.19 1477.13C3503.69 1553.75 3505.33 1562.32 3509.17 1567.26C3511.69 1570.51 3515.65 1573.61 3518.45 1574.72C3521.36 1575.74 3566.69 1581.64 3619.58 1587.84C3672.47 1594.04 3718.2 1600.2 3721.36 1601.8C3732.89 1606.93 3734.52 1609.53 3758.91 1661.26C3771.54 1687.94 3782.15 1711.76 3782.28 1714.17C3783.32 1726.68 3782.62 1728.01 3725.54 1813.52C3671.8 1894.13 3670.43 1896.35 3669.9 1904.1C3669.55 1908.62 3670.47 1914.28 3672.05 1917.3C3678.52 1929.85 3735.92 1994.73 3775.34 2034.01C3793.22 2051.78 3798.54 2054.41 3810.18 2050.76C3813.91 2049.6 3855.95 2029.67 3903.5 2006.4C3960.41 1978.77 3992.13 1963.96 3995.66 1963.53C4006.77 1962.42 4011.29 1964.51 4053.8 1990.37C4099.75 2018.19 4104.76 2022.41 4106.9 2034.84C4107.38 2037.94 4107.13 2082.56 4106.14 2133.94C4105.25 2185.43 4104.81 2229.81 4105.2 2232.79C4105.69 2236.66 4107.36 2239.8 4111.28 2244.09C4116.41 2249.95 4118.41 2250.53 4171.38 2264.77C4279.01 2293.7 4289.33 2296.3 4294.36 2296.06C4297.07 2296.07 4302.19 2294.21 4305.63 2291.93C4311.39 2288.41 4316.5 2280.58 4363.56 2203.04C4392.01 2156.2 4416.89 2116.19 4418.99 2114.17C4426.35 2106.51 4433.68 2105.26 4475.13 2103.94C4497.26 2103.34 4517.62 2102.96 4520.19 2103.29C4528.15 2103.85 4536.9 2108.64 4542.02 2115.48C4544.55 2118.73 4568.92 2157.53 4596.01 2201.55L4645.35 2281.4L4651.66 2284.8C4655.13 2286.54 4659.71 2288.2 4661.97 2288.37C4665.2 2288.56 4810.83 2242.94 4837.55 2233.36C4847.43 2229.93 4852.74 2223.1 4854.23 2212.1C4854.88 2207.72 4854.17 2160.37 4852.71 2106.85C4850.05 2010.8 4850.09 2009.61 4854.37 2001.46L4858.64 1993.3L4885.64 1974.63C4920.95 1950.27 4922.7 1949.29 4932.66 1948.7C4940.64 1948.28 4944.36 1949.84 5030.58 1990.96C5080 2014.54 5121.78 2034.01 5123.47 2034.44C5127.81 2035.31 5138.75 2032.99 5142 2030.46C5147.05 2026.53 5264.19 1885.43 5266.43 1880.6C5267.63 1877.93 5268.36 1872.91 5268.08 1869.08C5267.4 1861.49 5271.07 1866.95 5183.98 1738.81C5150.58 1689.64 5150.17 1688.61 5151.38 1676.27C5152.29 1667.26 5176.24 1613.87 5182.08 1607.98C5184.95 1604.97 5189.3 1602.37 5192.94 1601.08C5196.33 1599.99 5242.87 1593.55 5296.3 1586.78C5389.22 1575.18 5393.66 1574.43 5399.44 1569.94C5402.59 1567.29 5406 1563.48 5407.03 1561.33C5408.82 1557.43 5433.84 1376.31 5433.8 1367.07C5433.84 1364.14 5432.12 1359.69 5429.08 1355.29L5424.23 1348.05L5333.78 1309.44C5284.07 1288.21 5240.92 1269.22 5237.9 1267.32C5228.56 1261.26 5226.15 1254.44 5221.26 1222.32C5216.29 1189.87 5216.23 1186.06 5220.37 1177.23C5223.95 1169.43 5222.48 1170.76 5306.15 1101.08C5375.27 1043.47 5377.71 1041.39 5380.94 1034.62C5386.5 1023.15 5390.69 1034 5324.46 888.477C5313.18 864.03 5303.14 842.672 5302.01 841.227C5300.77 839.876 5297.89 837.669 5295.46 836.278ZM4940.56 1037.85C4961.97 1074.32 4977.17 1106.54 4989.84 1142.46C5057.62 1332.94 5017.41 1550.39 4886.38 1702.68C4857.66 1736.02 4842.51 1750.31 4802.92 1781.09C4765.72 1810.21 4756.1 1816.72 4722.31 1835.08C4563.67 1921.33 4368.56 1925.66 4204.98 1846.37C4143.01 1816.33 4097.62 1784.02 4043.69 1731.3C4026.85 1714.85 3975.1 1647.3 3961.93 1624.9C3894.45 1508.56 3868.86 1381.28 3887.14 1252.33C3913.33 1067.99 4024.95 911.09 4191.56 824.426C4301.13 767.439 4433.23 748.368 4556.55 771.654C4678.17 794.726 4786.09 854.323 4871.46 945.749C4887.28 962.616 4929.09 1018.38 4940.56 1037.85Z"/>
</mask>
<path d="M5295.46 836.278C5293 835.1 5288.4 833.654 5285.17 833.466C5281.93 833.277 5238.72 840.027 5188.98 848.566C5139.37 857.011 5094.55 864.428 5089.38 864.975C5074.31 866.453 5074.8 866.841 5047.37 834.285L5022.93 805.58L5021.09 796.768C5019.26 787.956 5019.66 786.485 5048.22 695.329C5064.03 644.404 5077.8 600.283 5078.63 597.128C5080.61 589.988 5078.85 581.51 5073.98 575.25C5069.95 570.074 4918.86 469.103 4911.96 466.934C4901.6 463.788 4894.7 466.834 4878.16 481.817C4844.79 512.398 4777.47 573.814 4761.92 587.835L4744.64 603.593L4735.06 605.435C4725.82 607.21 4723.81 606.848 4689.1 595.977C4669.13 589.672 4650.72 583.126 4648.22 581.4C4637.66 573.775 4637.09 572.29 4608.94 469.788C4580.04 364.584 4580.98 367.526 4569.47 361.411C4563.75 358.52 4383.02 355.523 4375.84 358.208C4371.6 359.958 4369.32 361.736 4366.58 365.412C4364.32 368.714 4353.97 404.572 4337.78 465.446C4315.75 547.859 4311.69 561.256 4307.45 566.482C4300.94 574.249 4300.94 574.249 4251.47 587.601C4207.37 599.672 4200.25 600.191 4189.58 593.421C4186.46 591.401 4151.31 560.593 4111.38 524.622C4035.4 456.212 4035 455.944 4023.67 456.261C4010.38 456.55 3854.15 553.099 3855.07 560.494C3855.15 561.591 3869.26 606.056 3886.3 659.254C3903.33 712.452 3917.56 758.562 3917.95 761.544C3919.55 773.044 3915.78 778.872 3881.45 817.155C3864.01 836.698 3847.22 854.582 3843.97 857.108C3840.24 860.008 3835.31 862.106 3830.87 862.853C3825.98 863.76 3793.94 859.309 3727.18 848.439C3674.06 839.714 3628.09 832.971 3625.13 833.144C3621.39 833.543 3617.7 835.254 3613.7 838.555C3608.16 842.858 3604.37 850.639 3572.11 920.145C3552.7 962.471 3536.31 999.745 3535.78 1003.05C3535.29 1006.14 3536.02 1011.55 3537.46 1014.88C3539.78 1020.61 3545.36 1025.54 3615.4 1083.11C3694.42 1147.99 3696.94 1150.47 3699.68 1162.44C3701.04 1168.92 3686.81 1269.8 3683.41 1277.85C3678.54 1288.97 3675.95 1290.6 3618.51 1315.56C3486.18 1373.06 3489.05 1371.79 3485.1 1377.37C3483.01 1380.15 3481.02 1384.79 3480.46 1387.55C3479.9 1390.3 3485.18 1430.62 3492.19 1477.13C3503.69 1553.75 3505.33 1562.32 3509.17 1567.26C3511.69 1570.51 3515.65 1573.61 3518.45 1574.72C3521.36 1575.74 3566.69 1581.64 3619.58 1587.84C3672.47 1594.04 3718.2 1600.2 3721.36 1601.8C3732.89 1606.93 3734.52 1609.53 3758.91 1661.26C3771.54 1687.94 3782.15 1711.76 3782.28 1714.17C3783.32 1726.68 3782.62 1728.01 3725.54 1813.52C3671.8 1894.13 3670.43 1896.35 3669.9 1904.1C3669.55 1908.62 3670.47 1914.28 3672.05 1917.3C3678.52 1929.85 3735.92 1994.73 3775.34 2034.01C3793.22 2051.78 3798.54 2054.41 3810.18 2050.76C3813.91 2049.6 3855.95 2029.67 3903.5 2006.4C3960.41 1978.77 3992.13 1963.96 3995.66 1963.53C4006.77 1962.42 4011.29 1964.51 4053.8 1990.37C4099.75 2018.19 4104.76 2022.41 4106.9 2034.84C4107.38 2037.94 4107.13 2082.56 4106.14 2133.94C4105.25 2185.43 4104.81 2229.81 4105.2 2232.79C4105.69 2236.66 4107.36 2239.8 4111.28 2244.09C4116.41 2249.95 4118.41 2250.53 4171.38 2264.77C4279.01 2293.7 4289.33 2296.3 4294.36 2296.06C4297.07 2296.07 4302.19 2294.21 4305.63 2291.93C4311.39 2288.41 4316.5 2280.58 4363.56 2203.04C4392.01 2156.2 4416.89 2116.19 4418.99 2114.17C4426.35 2106.51 4433.68 2105.26 4475.13 2103.94C4497.26 2103.34 4517.62 2102.96 4520.19 2103.29C4528.15 2103.85 4536.9 2108.64 4542.02 2115.48C4544.55 2118.73 4568.92 2157.53 4596.01 2201.55L4645.35 2281.4L4651.66 2284.8C4655.13 2286.54 4659.71 2288.2 4661.97 2288.37C4665.2 2288.56 4810.83 2242.94 4837.55 2233.36C4847.43 2229.93 4852.74 2223.1 4854.23 2212.1C4854.88 2207.72 4854.17 2160.37 4852.71 2106.85C4850.05 2010.8 4850.09 2009.61 4854.37 2001.46L4858.64 1993.3L4885.64 1974.63C4920.95 1950.27 4922.7 1949.29 4932.66 1948.7C4940.64 1948.28 4944.36 1949.84 5030.58 1990.96C5080 2014.54 5121.78 2034.01 5123.47 2034.44C5127.81 2035.31 5138.75 2032.99 5142 2030.46C5147.05 2026.53 5264.19 1885.43 5266.43 1880.6C5267.63 1877.93 5268.36 1872.91 5268.08 1869.08C5267.4 1861.49 5271.07 1866.95 5183.98 1738.81C5150.58 1689.64 5150.17 1688.61 5151.38 1676.27C5152.29 1667.26 5176.24 1613.87 5182.08 1607.98C5184.95 1604.97 5189.3 1602.37 5192.94 1601.08C5196.33 1599.99 5242.87 1593.55 5296.3 1586.78C5389.22 1575.18 5393.66 1574.43 5399.44 1569.94C5402.59 1567.29 5406 1563.48 5407.03 1561.33C5408.82 1557.43 5433.84 1376.31 5433.8 1367.07C5433.84 1364.14 5432.12 1359.69 5429.08 1355.29L5424.23 1348.05L5333.78 1309.44C5284.07 1288.21 5240.92 1269.22 5237.9 1267.32C5228.56 1261.26 5226.15 1254.44 5221.26 1222.32C5216.29 1189.87 5216.23 1186.06 5220.37 1177.23C5223.95 1169.43 5222.48 1170.76 5306.15 1101.08C5375.27 1043.47 5377.71 1041.39 5380.94 1034.62C5386.5 1023.15 5390.69 1034 5324.46 888.477C5313.18 864.03 5303.14 842.672 5302.01 841.227C5300.77 839.876 5297.89 837.669 5295.46 836.278ZM4940.56 1037.85C4961.97 1074.32 4977.17 1106.54 4989.84 1142.46C5057.62 1332.94 5017.41 1550.39 4886.38 1702.68C4857.66 1736.02 4842.51 1750.31 4802.92 1781.09C4765.72 1810.21 4756.1 1816.72 4722.31 1835.08C4563.67 1921.33 4368.56 1925.66 4204.98 1846.37C4143.01 1816.33 4097.62 1784.02 4043.69 1731.3C4026.85 1714.85 3975.1 1647.3 3961.93 1624.9C3894.45 1508.56 3868.86 1381.28 3887.14 1252.33C3913.33 1067.99 4024.95 911.09 4191.56 824.426C4301.13 767.439 4433.23 748.368 4556.55 771.654C4678.17 794.726 4786.09 854.323 4871.46 945.749C4887.28 962.616 4929.09 1018.38 4940.56 1037.85Z" fill="url(#paint1_linear_697_699)" stroke="black" stroke-width="16" mask="url(#path-3-inside-2_697_699)"/>
<path d="M4122.64 951.357L4122.64 951.345C4124.96 944.036 4127.19 937.639 4128.87 933.217C4129.14 932.512 4129.39 931.861 4129.63 931.268C4130.02 932.456 4130.47 933.826 4130.97 935.334C4132.57 940.164 4134.7 946.558 4136.96 953.348L4136.97 953.365L4136.97 953.371L4145.1 978.032L4145.54 979.372L4146.95 979.405L4175.49 980.071L4198.08 980.599L4182.23 992.051L4182.22 992.054C4171.15 1000.1 4160.8 1007.66 4159.41 1008.73C4159.05 1008.99 4158.63 1009.34 4158.27 1009.82C4157.89 1010.35 4157.65 1010.94 4157.53 1011.61C4157.31 1012.84 4157.5 1014.35 4157.93 1016.28C4158.81 1020.19 4160.98 1027.01 4164.96 1039.35M4122.64 951.357L4166.87 1038.74M4122.64 951.357L4113.97 978.024L4113.53 979.372L4112.11 979.405L4083.58 980.071L4060.99 980.599M4122.64 951.357L4099.68 1008.75M4164.96 1039.35L4166.87 1038.74M4164.96 1039.35C4164.96 1039.35 4164.96 1039.35 4164.96 1039.35L4166.87 1038.74M4164.96 1039.35C4167.29 1046.61 4169.39 1053.27 4170.89 1058.13C4171.19 1059.11 4171.47 1060.01 4171.72 1060.84M4166.87 1038.74C4170.19 1049.09 4173.04 1058.23 4174.36 1062.68C4173.65 1062.19 4172.76 1061.57 4171.72 1060.84M4171.72 1060.84C4172.09 1062.05 4172.4 1063.08 4172.63 1063.9C4172.64 1063.91 4172.64 1063.91 4172.64 1063.92C4172.93 1064.12 4173.2 1064.31 4173.44 1064.47M4171.72 1060.84C4171.5 1060.68 4171.27 1060.52 4171.04 1060.36C4167.86 1058.11 4163.51 1054.99 4158.71 1051.52M4173.44 1064.47C4173.51 1064.36 4173.6 1064.24 4173.72 1064.12C4174.03 1063.81 4174.38 1063.67 4174.63 1063.6L4173.44 1064.47ZM4173.44 1064.47L4157.53 1053.14M4158.71 1051.52C4158.71 1051.52 4158.71 1051.52 4158.72 1051.53L4157.53 1053.14M4158.71 1051.52C4158.71 1051.52 4158.71 1051.52 4158.7 1051.52L4157.53 1053.14M4158.71 1051.52C4152.1 1046.68 4145.07 1041.62 4140.45 1038.3C4138.46 1036.87 4136.92 1035.76 4136.04 1035.12L4136.02 1035.1L4135.99 1035.09L4130.53 1031.35L4129.36 1030.56L4128.22 1031.39L4105.69 1047.78L4106.87 1049.41M4157.53 1053.14C4150.93 1048.3 4143.93 1043.27 4139.31 1039.94C4137.31 1038.5 4135.75 1037.38 4134.87 1036.74L4129.4 1033.01L4106.87 1049.41M4106.87 1049.41C4097.9 1055.89 4090.1 1061.42 4086.33 1064L4106.87 1049.41ZM4075.67 993.672L4057.68 980.677L4060.99 980.599M4075.67 993.672L4112.07 977.405L4083.53 978.072L4058.31 978.661L4060.99 980.599M4075.67 993.672C4086.87 1001.81 4097.27 1009.41 4098.47 1010.34M4075.67 993.672L4098.47 1010.34M4060.99 980.599L4076.84 992.051L4076.84 992.054C4087.98 1000.14 4098.39 1007.75 4099.68 1008.75M4099.68 1008.75C4100.03 1009.01 4100.44 1009.37 4100.78 1009.86C4101.14 1010.38 4101.37 1010.97 4101.48 1011.62C4101.69 1012.83 4101.51 1014.33 4101.09 1016.25C4100.23 1020.15 4098.09 1026.94 4094.1 1039.22L4094.1 1039.23C4091.7 1046.55 4089.57 1053.24 4088.08 1058.11C4087.76 1059.15 4087.47 1060.1 4087.21 1060.95C4087.93 1060.45 4088.73 1059.9 4089.6 1059.29C4093.74 1056.38 4099.43 1052.32 4105.69 1047.79L4099.68 1008.75ZM4098.47 1010.34C4100.6 1011.94 4100.2 1013.94 4092.2 1038.61L4098.47 1010.34Z" fill="url(#paint2_linear_697_699)" stroke="black" stroke-width="4"/>
<path d="M4762.64 951.357L4762.64 951.345C4764.96 944.036 4767.19 937.639 4768.87 933.217C4769.14 932.512 4769.39 931.861 4769.63 931.268C4770.02 932.456 4770.47 933.826 4770.97 935.334C4772.57 940.164 4774.7 946.558 4776.96 953.348L4776.97 953.365L4776.97 953.371L4785.1 978.032L4785.54 979.372L4786.95 979.405L4815.49 980.071L4838.08 980.599L4822.23 992.051L4822.22 992.054C4811.15 1000.1 4800.8 1007.66 4799.41 1008.73C4799.05 1008.99 4798.63 1009.34 4798.27 1009.82C4797.89 1010.35 4797.65 1010.94 4797.53 1011.61C4797.31 1012.84 4797.5 1014.35 4797.93 1016.28C4798.81 1020.19 4800.98 1027.01 4804.96 1039.35M4762.64 951.357L4806.87 1038.74M4762.64 951.357L4753.97 978.024L4753.53 979.372L4752.11 979.405L4723.58 980.071L4700.99 980.599M4762.64 951.357L4739.68 1008.75M4804.96 1039.35L4806.87 1038.74M4804.96 1039.35C4804.96 1039.35 4804.96 1039.35 4804.96 1039.35L4806.87 1038.74M4804.96 1039.35C4807.29 1046.61 4809.39 1053.27 4810.89 1058.13C4811.19 1059.11 4811.47 1060.01 4811.72 1060.84M4806.87 1038.74C4810.19 1049.09 4813.04 1058.23 4814.36 1062.68C4813.65 1062.19 4812.76 1061.57 4811.72 1060.84M4811.72 1060.84C4812.09 1062.05 4812.4 1063.08 4812.63 1063.9C4812.64 1063.91 4812.64 1063.91 4812.64 1063.92C4812.93 1064.12 4813.2 1064.31 4813.44 1064.47M4811.72 1060.84C4811.5 1060.68 4811.27 1060.52 4811.04 1060.36C4807.86 1058.11 4803.51 1054.99 4798.71 1051.52M4813.44 1064.47C4813.51 1064.36 4813.6 1064.24 4813.72 1064.12C4814.03 1063.81 4814.38 1063.67 4814.63 1063.6L4813.44 1064.47ZM4813.44 1064.47L4797.53 1053.14M4798.71 1051.52C4798.71 1051.52 4798.71 1051.52 4798.72 1051.53L4797.53 1053.14M4798.71 1051.52C4798.71 1051.52 4798.71 1051.52 4798.7 1051.52L4797.53 1053.14M4798.71 1051.52C4792.1 1046.68 4785.07 1041.62 4780.45 1038.3C4778.46 1036.87 4776.92 1035.76 4776.04 1035.12L4776.02 1035.1L4775.99 1035.09L4770.53 1031.35L4769.36 1030.56L4768.22 1031.39L4745.69 1047.78L4746.87 1049.41M4797.53 1053.14C4790.93 1048.3 4783.93 1043.27 4779.31 1039.94C4777.31 1038.5 4775.75 1037.38 4774.87 1036.74L4769.4 1033.01L4746.87 1049.41M4746.87 1049.41C4737.9 1055.89 4730.1 1061.42 4726.33 1064L4746.87 1049.41ZM4715.67 993.672L4697.68 980.677L4700.99 980.599M4715.67 993.672L4752.07 977.405L4723.53 978.072L4698.31 978.661L4700.99 980.599M4715.67 993.672C4726.87 1001.81 4737.27 1009.41 4738.47 1010.34M4715.67 993.672L4738.47 1010.34M4700.99 980.599L4716.84 992.051L4716.84 992.054C4727.98 1000.14 4738.39 1007.75 4739.68 1008.75M4739.68 1008.75C4740.03 1009.01 4740.44 1009.37 4740.78 1009.86C4741.14 1010.38 4741.37 1010.97 4741.48 1011.62C4741.69 1012.83 4741.51 1014.33 4741.09 1016.25C4740.23 1020.15 4738.09 1026.94 4734.1 1039.22L4734.1 1039.23C4731.7 1046.55 4729.57 1053.24 4728.08 1058.11C4727.76 1059.15 4727.47 1060.1 4727.21 1060.95C4727.93 1060.45 4728.73 1059.9 4729.6 1059.29C4733.74 1056.38 4739.43 1052.32 4745.69 1047.79L4739.68 1008.75ZM4738.47 1010.34C4740.6 1011.94 4740.2 1013.94 4732.2 1038.61L4738.47 1010.34Z" fill="url(#paint3_linear_697_699)" stroke="black" stroke-width="4"/>
<path d="M4122.64 1616.36L4122.64 1616.35C4124.96 1609.04 4127.19 1602.64 4128.87 1598.22C4129.14 1597.51 4129.39 1596.86 4129.63 1596.27C4130.02 1597.46 4130.47 1598.83 4130.97 1600.33C4132.57 1605.16 4134.7 1611.56 4136.96 1618.35L4136.97 1618.36L4136.97 1618.37L4145.1 1643.03L4145.54 1644.37L4146.95 1644.4L4175.49 1645.07L4198.08 1645.6L4182.23 1657.05L4182.22 1657.05C4171.15 1665.1 4160.8 1672.66 4159.41 1673.73C4159.05 1673.99 4158.63 1674.34 4158.27 1674.82C4157.89 1675.35 4157.65 1675.94 4157.53 1676.61C4157.31 1677.84 4157.5 1679.35 4157.93 1681.28C4158.81 1685.19 4160.98 1692.01 4164.96 1704.35M4122.64 1616.36L4166.87 1703.74M4122.64 1616.36L4113.97 1643.02L4113.53 1644.37L4112.11 1644.4L4083.58 1645.07L4060.99 1645.6M4122.64 1616.36L4099.68 1673.75M4164.96 1704.35L4166.87 1703.74M4164.96 1704.35C4164.96 1704.35 4164.96 1704.35 4164.96 1704.35L4166.87 1703.74M4164.96 1704.35C4167.29 1711.61 4169.39 1718.27 4170.89 1723.13C4171.19 1724.11 4171.47 1725.01 4171.72 1725.84M4166.87 1703.74C4170.19 1714.09 4173.04 1723.23 4174.36 1727.68C4173.65 1727.19 4172.76 1726.57 4171.72 1725.84M4171.72 1725.84C4172.09 1727.05 4172.4 1728.08 4172.63 1728.9C4172.64 1728.91 4172.64 1728.91 4172.64 1728.92C4172.93 1729.12 4173.2 1729.31 4173.44 1729.47M4171.72 1725.84C4171.5 1725.68 4171.27 1725.52 4171.04 1725.36C4167.86 1723.11 4163.51 1719.99 4158.71 1716.52M4173.44 1729.47C4173.51 1729.36 4173.6 1729.24 4173.72 1729.12C4174.03 1728.81 4174.38 1728.67 4174.63 1728.6L4173.44 1729.47ZM4173.44 1729.47L4157.53 1718.14M4158.71 1716.52C4158.71 1716.52 4158.71 1716.52 4158.72 1716.53L4157.53 1718.14M4158.71 1716.52C4158.71 1716.52 4158.71 1716.52 4158.7 1716.52L4157.53 1718.14M4158.71 1716.52C4152.1 1711.68 4145.07 1706.62 4140.45 1703.3C4138.46 1701.87 4136.92 1700.76 4136.04 1700.12L4136.02 1700.1L4135.99 1700.09L4130.53 1696.35L4129.36 1695.56L4128.22 1696.39L4105.69 1712.78L4106.87 1714.41M4157.53 1718.14C4150.93 1713.3 4143.93 1708.27 4139.31 1704.94C4137.31 1703.5 4135.75 1702.38 4134.87 1701.74L4129.4 1698.01L4106.87 1714.41M4106.87 1714.41C4097.9 1720.89 4090.1 1726.42 4086.33 1729L4106.87 1714.41ZM4075.67 1658.67L4057.68 1645.68L4060.99 1645.6M4075.67 1658.67L4112.07 1642.41L4083.53 1643.07L4058.31 1643.66L4060.99 1645.6M4075.67 1658.67C4086.87 1666.81 4097.27 1674.41 4098.47 1675.34M4075.67 1658.67L4098.47 1675.34M4060.99 1645.6L4076.84 1657.05L4076.84 1657.05C4087.98 1665.14 4098.39 1672.75 4099.68 1673.75M4099.68 1673.75C4100.03 1674.01 4100.44 1674.37 4100.78 1674.86C4101.14 1675.38 4101.37 1675.97 4101.48 1676.62C4101.69 1677.83 4101.51 1679.33 4101.09 1681.25C4100.23 1685.15 4098.09 1691.94 4094.1 1704.22L4094.1 1704.23C4091.7 1711.55 4089.57 1718.24 4088.08 1723.11C4087.76 1724.15 4087.47 1725.1 4087.21 1725.95C4087.93 1725.45 4088.73 1724.9 4089.6 1724.29C4093.74 1721.38 4099.43 1717.32 4105.69 1712.79L4099.68 1673.75ZM4098.47 1675.34C4100.6 1676.94 4100.2 1678.94 4092.2 1703.61L4098.47 1675.34Z" fill="url(#paint4_linear_697_699)" stroke="black" stroke-width="4"/>
<path d="M4762.64 1616.36L4762.64 1616.35C4764.96 1609.04 4767.19 1602.64 4768.87 1598.22C4769.14 1597.51 4769.39 1596.86 4769.63 1596.27C4770.02 1597.46 4770.47 1598.83 4770.97 1600.33C4772.57 1605.16 4774.7 1611.56 4776.96 1618.35L4776.97 1618.36L4776.97 1618.37L4785.1 1643.03L4785.54 1644.37L4786.95 1644.4L4815.49 1645.07L4838.08 1645.6L4822.23 1657.05L4822.22 1657.05C4811.15 1665.1 4800.8 1672.66 4799.41 1673.73C4799.05 1673.99 4798.63 1674.34 4798.27 1674.82C4797.89 1675.35 4797.65 1675.94 4797.53 1676.61C4797.31 1677.84 4797.5 1679.35 4797.93 1681.28C4798.81 1685.19 4800.98 1692.01 4804.96 1704.35M4762.64 1616.36L4806.87 1703.74M4762.64 1616.36L4753.97 1643.02L4753.53 1644.37L4752.11 1644.4L4723.58 1645.07L4700.99 1645.6M4762.64 1616.36L4739.68 1673.75M4804.96 1704.35L4806.87 1703.74M4804.96 1704.35C4804.96 1704.35 4804.96 1704.35 4804.96 1704.35L4806.87 1703.74M4804.96 1704.35C4807.29 1711.61 4809.39 1718.27 4810.89 1723.13C4811.19 1724.11 4811.47 1725.01 4811.72 1725.84M4806.87 1703.74C4810.19 1714.09 4813.04 1723.23 4814.36 1727.68C4813.65 1727.19 4812.76 1726.57 4811.72 1725.84M4811.72 1725.84C4812.09 1727.05 4812.4 1728.08 4812.63 1728.9C4812.64 1728.91 4812.64 1728.91 4812.64 1728.92C4812.93 1729.12 4813.2 1729.31 4813.44 1729.47M4811.72 1725.84C4811.5 1725.68 4811.27 1725.52 4811.04 1725.36C4807.86 1723.11 4803.51 1719.99 4798.71 1716.52M4813.44 1729.47C4813.51 1729.36 4813.6 1729.24 4813.72 1729.12C4814.03 1728.81 4814.38 1728.67 4814.63 1728.6L4813.44 1729.47ZM4813.44 1729.47L4797.53 1718.14M4798.71 1716.52C4798.71 1716.52 4798.71 1716.52 4798.72 1716.53L4797.53 1718.14M4798.71 1716.52C4798.71 1716.52 4798.71 1716.52 4798.7 1716.52L4797.53 1718.14M4798.71 1716.52C4792.1 1711.68 4785.07 1706.62 4780.45 1703.3C4778.46 1701.87 4776.92 1700.76 4776.04 1700.12L4776.02 1700.1L4775.99 1700.09L4770.53 1696.35L4769.36 1695.56L4768.22 1696.39L4745.69 1712.78L4746.87 1714.41M4797.53 1718.14C4790.93 1713.3 4783.93 1708.27 4779.31 1704.94C4777.31 1703.5 4775.75 1702.38 4774.87 1701.74L4769.4 1698.01L4746.87 1714.41M4746.87 1714.41C4737.9 1720.89 4730.1 1726.42 4726.33 1729L4746.87 1714.41ZM4715.67 1658.67L4697.68 1645.68L4700.99 1645.6M4715.67 1658.67L4752.07 1642.41L4723.53 1643.07L4698.31 1643.66L4700.99 1645.6M4715.67 1658.67C4726.87 1666.81 4737.27 1674.41 4738.47 1675.34M4715.67 1658.67L4738.47 1675.34M4700.99 1645.6L4716.84 1657.05L4716.84 1657.05C4727.98 1665.14 4738.39 1672.75 4739.68 1673.75M4739.68 1673.75C4740.03 1674.01 4740.44 1674.37 4740.78 1674.86C4741.14 1675.38 4741.37 1675.97 4741.48 1676.62C4741.69 1677.83 4741.51 1679.33 4741.09 1681.25C4740.23 1685.15 4738.09 1691.94 4734.1 1704.22L4734.1 1704.23C4731.7 1711.55 4729.57 1718.24 4728.08 1723.11C4727.76 1724.15 4727.47 1725.1 4727.21 1725.95C4727.93 1725.45 4728.73 1724.9 4729.6 1724.29C4733.74 1721.38 4739.43 1717.32 4745.69 1712.79L4739.68 1673.75ZM4738.47 1675.34C4740.6 1676.94 4740.2 1678.94 4732.2 1703.61L4738.47 1675.34Z" fill="url(#paint5_linear_697_699)" stroke="black" stroke-width="4"/>
<path d="M4433.76 1241.42L4433.75 1241.43L4416.37 1295.13L4415.93 1296.48L4414.51 1296.52L4357.28 1297.86L4305.97 1299.06L4342.63 1325.65L4342.63 1325.66C4365.03 1341.99 4385.9 1357.3 4388.4 1359.25C4389.02 1359.71 4389.66 1360.28 4390.18 1361.03C4390.72 1361.81 4391.07 1362.71 4391.25 1363.77C4391.6 1365.78 4391.32 1368.47 4390.48 1372.31C4388.78 1380.04 4384.53 1393.58 4376.52 1418.37L4376.52 1418.38C4371.71 1433.14 4367.43 1446.62 4364.43 1456.44C4363 1461.1 4361.87 1464.92 4361.1 1467.66C4363.42 1466.07 4366.64 1463.83 4370.55 1461.06C4378.87 1455.2 4390.29 1447.01 4402.86 1437.89C4402.86 1437.89 4402.86 1437.89 4402.86 1437.89L4448.05 1404.87L4449.2 1404.03L4450.36 1404.83L4461.33 1412.35L4461.35 1412.37L4461.38 1412.38C4463.14 1413.67 4466.25 1415.92 4470.25 1418.81C4479.52 1425.5 4493.59 1435.66 4506.84 1445.41C4516.47 1452.39 4525.22 1458.69 4531.59 1463.22C4534 1464.92 4536.06 1466.37 4537.7 1467.51C4536.9 1464.78 4535.77 1461.02 4534.37 1456.47C4531.37 1446.68 4527.16 1433.27 4522.48 1418.64C4514.47 1393.72 4510.15 1380.11 4508.42 1372.35C4507.57 1368.5 4507.27 1365.79 4507.63 1363.76C4507.83 1362.68 4508.2 1361.78 4508.77 1361C4509.32 1360.25 4509.97 1359.69 4510.62 1359.23C4513.22 1357.21 4534.03 1341.94 4556.37 1325.66L4556.37 1325.65L4593.03 1299.06L4541.72 1297.86L4484.49 1296.52L4483.08 1296.48L4482.63 1295.14L4466.32 1245.47C4466.32 1245.47 4466.32 1245.47 4466.32 1245.47C4461.78 1231.78 4457.5 1218.89 4454.29 1209.15C4452.43 1203.53 4450.92 1198.92 4449.92 1195.81C4448.96 1197.98 4447.72 1201.02 4446.29 1204.81C4442.9 1213.76 4438.43 1226.68 4433.76 1241.42Z" fill="url(#paint6_linear_697_699)" stroke="black" stroke-width="4"/>
<defs>
<linearGradient id="paint0_linear_697_699" x1="4488.53" y1="2338" x2="4488.53" y2="20.5959" gradientUnits="userSpaceOnUse">
<stop stop-color="#009C3B"/>
<stop offset="0.0001" stop-color="#FFDF00"/>
<stop offset="0.338542" stop-color="#002776"/>
<stop offset="0.473958" stop-color="#002776"/>
<stop offset="0.671875" stop-color="#00963E"/>
<stop offset="1" stop-color="#009C3B"/>
</linearGradient>
<linearGradient id="paint1_linear_697_699" x1="3812" y1="1031" x2="4810.5" y2="1861" gradientUnits="userSpaceOnUse">
<stop offset="0.395186" stop-color="#FFDF00"/>
<stop offset="0.453025" stop-color="#FFDF00"/>
<stop offset="0.453125" stop-color="#009C3B"/>
<stop offset="0.48667" stop-color="#002776"/>
<stop offset="0.535988" stop-color="#FFDF00"/>
</linearGradient>
<linearGradient id="paint2_linear_697_699" x1="4129.53" y1="1065.54" x2="4129.53" y2="926.001" gradientUnits="userSpaceOnUse">
<stop offset="1" stop-color="#002571"/>
</linearGradient>
<linearGradient id="paint3_linear_697_699" x1="4769.53" y1="1065.54" x2="4769.53" y2="926.001" gradientUnits="userSpaceOnUse">
<stop offset="1" stop-color="#002571"/>
</linearGradient>
<linearGradient id="paint4_linear_697_699" x1="4129.53" y1="1730.54" x2="4129.53" y2="1591" gradientUnits="userSpaceOnUse">
<stop offset="1" stop-color="#002571"/>
</linearGradient>
<linearGradient id="paint5_linear_697_699" x1="4769.53" y1="1730.54" x2="4769.53" y2="1591" gradientUnits="userSpaceOnUse">
<stop offset="1" stop-color="#002571"/>
</linearGradient>
<linearGradient id="paint6_linear_697_699" x1="4449.5" y1="1472" x2="4449.5" y2="1191" gradientUnits="userSpaceOnUse">
<stop offset="1" stop-color="#002571"/>
</linearGradient>
</defs>
</svg>
